<svg xmlns="http://www.w3.org/2000/svg" width="860" height="560" viewBox="0 0 860 560">
<rect width="100%" height="100%" fill="white"/>
<text x="430" y="28" text-anchor="middle" font-family="Arial" font-size="18" font-weight="700">Fig. 3.4: amplitudes for delta1=0.005</text>
<line x1="82" y1="488" x2="830" y2="488" stroke="#222" stroke-width="1.5"/>
<line x1="82" y1="48" x2="82" y2="488" stroke="#222" stroke-width="1.5"/>
<line x1="82.000" y1="488" x2="82.000" y2="494" stroke="#222"/>
<text x="82.000" y="512" text-anchor="middle" font-family="Arial" font-size="12">-0.0296</text>
<line x1="76" y1="488.000" x2="82" y2="488.000" stroke="#222"/>
<line x1="82" y1="488.000" x2="830" y2="488.000" stroke="#e8e8e8"/>
<text x="72" y="492.000" text-anchor="end" font-family="Arial" font-size="12">-0.0051</text>
<line x1="231.600" y1="488" x2="231.600" y2="494" stroke="#222"/>
<text x="231.600" y="512" text-anchor="middle" font-family="Arial" font-size="12">0.0222</text>
<line x1="76" y1="400.000" x2="82" y2="400.000" stroke="#222"/>
<line x1="82" y1="400.000" x2="830" y2="400.000" stroke="#e8e8e8"/>
<text x="72" y="404.000" text-anchor="end" font-family="Arial" font-size="12">0.0103</text>
<line x1="381.200" y1="488" x2="381.200" y2="494" stroke="#222"/>
<text x="381.200" y="512" text-anchor="middle" font-family="Arial" font-size="12">0.0741</text>
<line x1="76" y1="312.000" x2="82" y2="312.000" stroke="#222"/>
<line x1="82" y1="312.000" x2="830" y2="312.000" stroke="#e8e8e8"/>
<text x="72" y="316.000" text-anchor="end" font-family="Arial" font-size="12">0.0258</text>
<line x1="530.800" y1="488" x2="530.800" y2="494" stroke="#222"/>
<text x="530.800" y="512" text-anchor="middle" font-family="Arial" font-size="12">0.1259</text>
<line x1="76" y1="224.000" x2="82" y2="224.000" stroke="#222"/>
<line x1="82" y1="224.000" x2="830" y2="224.000" stroke="#e8e8e8"/>
<text x="72" y="228.000" text-anchor="end" font-family="Arial" font-size="12">0.0412</text>
<line x1="680.400" y1="488" x2="680.400" y2="494" stroke="#222"/>
<text x="680.400" y="512" text-anchor="middle" font-family="Arial" font-size="12">0.1778</text>
<line x1="76" y1="136.000" x2="82" y2="136.000" stroke="#222"/>
<line x1="82" y1="136.000" x2="830" y2="136.000" stroke="#e8e8e8"/>
<text x="72" y="140.000" text-anchor="end" font-family="Arial" font-size="12">0.0566</text>
<line x1="830.000" y1="488" x2="830.000" y2="494" stroke="#222"/>
<text x="830.000" y="512" text-anchor="middle" font-family="Arial" font-size="12">0.2296</text>
<line x1="76" y1="48.000" x2="82" y2="48.000" stroke="#222"/>
<line x1="82" y1="48.000" x2="830" y2="48.000" stroke="#e8e8e8"/>
<text x="72" y="52.000" text-anchor="end" font-family="Arial" font-size="12">0.0721</text>
<text x="430" y="542" text-anchor="middle" font-family="Arial" font-size="15">t_n</text>
<text transform="translate(24 280) rotate(-90)" text-anchor="middle" font-family="Arial" font-size="15">a_n</text>
<polyline fill="none" stroke="#c43c39" stroke-width="2.2" points="109.704,457.655 116.700,457.377 123.695,457.016 130.691,456.565 137.687,456.010 144.683,455.336 151.679,454.525 158.675,453.554 165.671,452.401 172.667,451.036 179.663,449.429 186.658,447.542 193.654,445.337 200.650,442.773 207.646,439.804 214.642,436.384 221.638,432.468 228.634,428.010 235.630,422.963 242.626,417.286 249.621,410.938 256.617,403.884 263.613,396.092 270.609,387.539 277.605,378.206 284.601,368.086 291.597,357.181 298.593,345.505 305.588,333.086 312.584,319.965 319.580,306.200 326.576,291.860 333.572,277.035 340.568,261.825 347.564,246.346 354.560,230.724 361.556,215.097 368.551,199.611 375.547,184.418 382.543,169.675 389.539,155.540 396.535,142.169 403.531,129.718 410.527,118.333 417.523,108.153 424.519,99.306 431.514,91.903 438.510,86.041 445.506,81.796 452.502,79.223 459.498,78.355 466.494,79.201 473.490,81.747 480.486,85.954 487.481,91.764 494.477,99.095 501.473,107.846 508.469,117.900 515.465,129.126 522.461,141.380 529.457,154.511 536.453,168.362 543.449,182.773 550.444,197.588 557.440,212.651 564.436,227.815 571.432,242.940 578.428,257.898 585.424,272.574 592.420,286.865 599.416,300.684 606.412,313.956 613.407,326.623 620.403,338.639 627.399,349.971 634.395,360.598 641.391,370.510 648.387,379.708 655.383,388.199 662.379,395.999 669.374,403.130 676.370,409.619 683.366,415.497 690.362,420.797 697.358,425.556 704.354,429.812 711.350,433.602 718.346,436.963 725.342,439.934 732.337,442.550 739.333,444.844 746.329,446.850 753.325,448.598 760.321,450.115 767.317,451.427 774.313,452.559 781.309,453.531 788.305,454.364 795.300,455.074 802.296,455.679 "/>
<polyline fill="none" stroke="#2a9d55" stroke-width="2.2" points="109.704,457.655 116.700,457.374 123.695,457.016 130.691,456.570 137.687,456.008 144.683,455.337 151.679,454.527 158.675,453.555 165.671,452.401 172.667,451.029 179.663,449.439 186.658,447.542 193.654,445.342 200.650,442.769 207.646,439.816 214.642,436.380 221.638,432.477 228.634,428.040 235.630,422.946 242.626,417.296 249.621,410.917 256.617,403.866 263.613,396.080 270.609,387.539 277.605,378.209 284.601,368.181 291.597,357.099 298.593,345.549 305.588,333.110 312.584,319.983 319.580,306.287 326.576,291.966 333.572,277.064 340.568,261.749 347.564,246.257 354.560,230.684 361.556,215.148 368.551,199.658 375.547,184.531 382.543,169.902 389.539,155.653 396.535,142.125 403.531,129.594 410.527,118.247 417.523,108.243 424.519,99.409 431.514,91.822 438.510,86.047 445.506,82.002 452.502,79.261 459.498,78.345 466.494,79.283 473.490,81.865 480.486,85.942 487.481,91.786 494.477,99.171 501.473,107.813 508.469,117.949 515.465,129.130 522.461,141.308 529.457,154.616 536.453,168.422 543.449,182.877 550.444,197.654 557.440,212.714 564.436,227.885 571.432,242.976 578.428,257.887 585.424,272.540 592.420,286.802 599.416,300.630 606.412,313.933 613.407,326.623 620.403,338.655 627.399,350.013 634.395,360.653 641.391,370.576 648.387,379.767 655.383,388.231 662.379,396.016 669.374,403.138 676.370,409.590 683.366,415.472 690.362,420.758 697.358,425.518 704.354,429.777 711.350,433.586 718.346,436.961 725.342,439.939 732.337,442.566 739.333,444.872 746.329,446.884 753.325,448.631 760.321,450.139 767.317,451.443 774.313,452.565 781.309,453.524 788.305,454.345 795.300,455.046 802.296,455.647 "/>
<line x1="645" y1="62" x2="673" y2="62" stroke="#c43c39" stroke-width="2.5"/>
<text x="681" y="66" font-family="Arial" font-size="12">small detector</text>
<line x1="645" y1="80" x2="673" y2="80" stroke="#2a9d55" stroke-width="2.5"/>
<text x="681" y="84" font-family="Arial" font-size="12">random detector</text>
</svg>
