<svg xmlns="http://www.w3.org/2000/svg" width="860" height="560" viewBox="0 0 860 560">
<rect width="100%" height="100%" fill="white"/>
<text x="430" y="28" text-anchor="middle" font-family="Arial" font-size="18" font-weight="700">Fig. 3.5: detection probability for delta1=0.005</text>
<line x1="82" y1="488" x2="830" y2="488" stroke="#222" stroke-width="1.5"/>
<line x1="82" y1="48" x2="82" y2="488" stroke="#222" stroke-width="1.5"/>
<line x1="82.000" y1="488" x2="82.000" y2="494" stroke="#222"/>
<text x="82.000" y="512" text-anchor="middle" font-family="Arial" font-size="12">-0.0296</text>
<line x1="76" y1="488.000" x2="82" y2="488.000" stroke="#222"/>
<line x1="82" y1="488.000" x2="830" y2="488.000" stroke="#e8e8e8"/>
<text x="72" y="492.000" text-anchor="end" font-family="Arial" font-size="12">-0.0003</text>
<line x1="231.600" y1="488" x2="231.600" y2="494" stroke="#222"/>
<text x="231.600" y="512" text-anchor="middle" font-family="Arial" font-size="12">0.0222</text>
<line x1="76" y1="400.000" x2="82" y2="400.000" stroke="#222"/>
<line x1="82" y1="400.000" x2="830" y2="400.000" stroke="#e8e8e8"/>
<text x="72" y="404.000" text-anchor="end" font-family="Arial" font-size="12">0.0006</text>
<line x1="381.200" y1="488" x2="381.200" y2="494" stroke="#222"/>
<text x="381.200" y="512" text-anchor="middle" font-family="Arial" font-size="12">0.0741</text>
<line x1="76" y1="312.000" x2="82" y2="312.000" stroke="#222"/>
<line x1="82" y1="312.000" x2="830" y2="312.000" stroke="#e8e8e8"/>
<text x="72" y="316.000" text-anchor="end" font-family="Arial" font-size="12">0.0016</text>
<line x1="530.800" y1="488" x2="530.800" y2="494" stroke="#222"/>
<text x="530.800" y="512" text-anchor="middle" font-family="Arial" font-size="12">0.1259</text>
<line x1="76" y1="224.000" x2="82" y2="224.000" stroke="#222"/>
<line x1="82" y1="224.000" x2="830" y2="224.000" stroke="#e8e8e8"/>
<text x="72" y="228.000" text-anchor="end" font-family="Arial" font-size="12">0.0026</text>
<line x1="680.400" y1="488" x2="680.400" y2="494" stroke="#222"/>
<text x="680.400" y="512" text-anchor="middle" font-family="Arial" font-size="12">0.1778</text>
<line x1="76" y1="136.000" x2="82" y2="136.000" stroke="#222"/>
<line x1="82" y1="136.000" x2="830" y2="136.000" stroke="#e8e8e8"/>
<text x="72" y="140.000" text-anchor="end" font-family="Arial" font-size="12">0.0036</text>
<line x1="830.000" y1="488" x2="830.000" y2="494" stroke="#222"/>
<text x="830.000" y="512" text-anchor="middle" font-family="Arial" font-size="12">0.2296</text>
<line x1="76" y1="48.000" x2="82" y2="48.000" stroke="#222"/>
<line x1="82" y1="48.000" x2="830" y2="48.000" stroke="#e8e8e8"/>
<text x="72" y="52.000" text-anchor="end" font-family="Arial" font-size="12">0.0046</text>
<text x="430" y="542" text-anchor="middle" font-family="Arial" font-size="15">t_n</text>
<text transform="translate(24 280) rotate(-90)" text-anchor="middle" font-family="Arial" font-size="15">pi_n</text>
<polyline fill="none" stroke="#c43c39" stroke-width="2.2" points="109.704,457.655 116.700,457.653 123.695,457.650 130.691,457.645 137.687,457.637 144.683,457.626 151.679,457.608 158.675,457.583 165.671,457.545 172.667,457.492 179.663,457.415 186.658,457.307 193.654,457.156 200.650,456.947 207.646,456.658 214.642,456.266 221.638,455.737 228.634,455.031 235.630,454.099 242.626,452.881 249.621,451.309 256.617,449.300 263.613,446.761 270.609,443.587 277.605,439.662 284.601,434.863 291.597,429.061 298.593,422.123 305.588,413.922 312.584,404.342 319.580,393.283 326.576,380.671 333.572,366.468 340.568,350.677 347.564,333.351 354.560,314.597 361.556,294.583 368.551,273.537 375.547,251.746 382.543,229.553 389.539,207.350 396.535,185.564 403.531,164.650 410.527,145.071 417.523,127.283 424.519,111.716 431.514,98.756 438.510,88.732 445.506,81.896 452.502,78.416 459.498,78.370 466.494,81.738 473.490,88.409 480.486,98.185 487.481,110.792 494.477,125.891 501.473,143.096 508.469,161.986 515.465,182.128 522.461,203.085 529.457,224.438 536.453,245.792 543.449,266.794 550.444,287.133 557.440,306.551 564.436,324.843 571.432,341.858 578.428,357.495 585.424,371.702 592.420,384.467 599.416,395.815 606.412,405.802 613.407,414.504 620.403,422.012 627.399,428.432 634.395,433.870 641.391,438.436 648.387,442.236 655.383,445.372 662.379,447.938 669.374,450.022 676.370,451.699 683.366,453.039 690.362,454.101 697.358,454.936 704.354,455.589 711.350,456.095 718.346,456.484 725.342,456.782 732.337,457.008 739.333,457.179 746.329,457.307 753.325,457.402 760.321,457.473 767.317,457.525 774.313,457.563 781.309,457.590 788.305,457.610 795.300,457.625 802.296,457.635 "/>
<polyline fill="none" stroke="#2a9d55" stroke-width="2.2" points="109.704,457.655 116.700,457.653 123.695,457.650 130.691,457.645 137.687,457.637 144.683,457.626 151.679,457.608 158.675,457.583 165.671,457.545 172.667,457.491 179.663,457.416 186.658,457.307 193.654,457.157 200.650,456.946 207.646,456.660 214.642,456.265 221.638,455.738 228.634,455.036 235.630,454.095 242.626,452.884 249.621,451.303 256.617,449.294 263.613,446.756 270.609,443.587 277.605,439.664 284.601,434.911 291.597,429.014 298.593,422.150 305.588,413.939 312.584,404.356 319.580,393.356 326.576,380.769 333.572,366.497 340.568,350.594 347.564,333.247 354.560,314.548 361.556,294.651 368.551,273.603 375.547,251.914 382.543,229.910 389.539,207.535 396.535,185.485 403.531,164.427 410.527,144.911 417.523,127.451 424.519,111.913 431.514,98.595 438.510,88.741 445.506,82.303 452.502,78.488 459.498,78.345 466.494,81.896 473.490,88.634 480.486,98.155 487.481,110.827 494.477,126.025 501.473,143.030 508.469,162.066 515.465,182.130 522.461,202.965 529.457,224.595 536.453,245.876 543.449,266.933 550.444,287.215 557.440,306.625 564.436,324.922 571.432,341.895 578.428,357.482 585.424,371.668 592.420,384.411 599.416,395.772 606.412,405.784 613.407,414.502 620.403,422.021 627.399,428.454 634.395,433.896 641.391,438.464 648.387,442.259 655.383,445.383 662.379,447.944 669.374,450.024 676.370,451.692 683.366,453.033 690.362,454.093 697.358,454.930 704.354,455.584 711.350,456.093 718.346,456.484 725.342,456.782 732.337,457.010 739.333,457.181 746.329,457.309 753.325,457.404 760.321,457.474 767.317,457.525 774.313,457.563 781.309,457.590 788.305,457.610 795.300,457.624 802.296,457.634 "/>
<line x1="645" y1="62" x2="673" y2="62" stroke="#c43c39" stroke-width="2.5"/>
<text x="681" y="66" font-family="Arial" font-size="12">small detector</text>
<line x1="645" y1="80" x2="673" y2="80" stroke="#2a9d55" stroke-width="2.5"/>
<text x="681" y="84" font-family="Arial" font-size="12">random detector</text>
</svg>
