<svg xmlns="http://www.w3.org/2000/svg" width="860" height="560" viewBox="0 0 860 560">
<rect width="100%" height="100%" fill="white"/>
<text x="430" y="28" text-anchor="middle" font-family="Arial" font-size="18" font-weight="700">Fig. 3.8: arrival time by detector width</text>
<line x1="82" y1="488" x2="830" y2="488" stroke="#222" stroke-width="1.5"/>
<line x1="82" y1="48" x2="82" y2="488" stroke="#222" stroke-width="1.5"/>
<line x1="82.000" y1="488" x2="82.000" y2="494" stroke="#222"/>
<text x="82.000" y="512" text-anchor="middle" font-family="Arial" font-size="12">-0.0019</text>
<line x1="76" y1="488.000" x2="82" y2="488.000" stroke="#222"/>
<line x1="82" y1="488.000" x2="830" y2="488.000" stroke="#e8e8e8"/>
<text x="72" y="492.000" text-anchor="end" font-family="Arial" font-size="12">0.0000</text>
<line x1="231.600" y1="488" x2="231.600" y2="494" stroke="#222"/>
<text x="231.600" y="512" text-anchor="middle" font-family="Arial" font-size="12">0.0087</text>
<line x1="76" y1="400.000" x2="82" y2="400.000" stroke="#222"/>
<line x1="82" y1="400.000" x2="830" y2="400.000" stroke="#e8e8e8"/>
<text x="72" y="404.000" text-anchor="end" font-family="Arial" font-size="12">0.0207</text>
<line x1="381.200" y1="488" x2="381.200" y2="494" stroke="#222"/>
<text x="381.200" y="512" text-anchor="middle" font-family="Arial" font-size="12">0.0193</text>
<line x1="76" y1="312.000" x2="82" y2="312.000" stroke="#222"/>
<line x1="82" y1="312.000" x2="830" y2="312.000" stroke="#e8e8e8"/>
<text x="72" y="316.000" text-anchor="end" font-family="Arial" font-size="12">0.0413</text>
<line x1="530.800" y1="488" x2="530.800" y2="494" stroke="#222"/>
<text x="530.800" y="512" text-anchor="middle" font-family="Arial" font-size="12">0.0298</text>
<line x1="76" y1="224.000" x2="82" y2="224.000" stroke="#222"/>
<line x1="82" y1="224.000" x2="830" y2="224.000" stroke="#e8e8e8"/>
<text x="72" y="228.000" text-anchor="end" font-family="Arial" font-size="12">0.0620</text>
<line x1="680.400" y1="488" x2="680.400" y2="494" stroke="#222"/>
<text x="680.400" y="512" text-anchor="middle" font-family="Arial" font-size="12">0.0404</text>
<line x1="76" y1="136.000" x2="82" y2="136.000" stroke="#222"/>
<line x1="82" y1="136.000" x2="830" y2="136.000" stroke="#e8e8e8"/>
<text x="72" y="140.000" text-anchor="end" font-family="Arial" font-size="12">0.0826</text>
<line x1="830.000" y1="488" x2="830.000" y2="494" stroke="#222"/>
<text x="830.000" y="512" text-anchor="middle" font-family="Arial" font-size="12">0.0510</text>
<line x1="76" y1="48.000" x2="82" y2="48.000" stroke="#222"/>
<line x1="82" y1="48.000" x2="830" y2="48.000" stroke="#e8e8e8"/>
<text x="72" y="52.000" text-anchor="end" font-family="Arial" font-size="12">0.1033</text>
<text x="430" y="542" text-anchor="middle" font-family="Arial" font-size="15">delta1</text>
<text transform="translate(24 280) rotate(-90)" text-anchor="middle" font-family="Arial" font-size="15">tbar</text>
<polyline fill="none" stroke="#c43c39" stroke-width="2.2" points="109.704,59.923 123.838,59.683 137.973,59.440 152.107,59.194 166.242,58.946 180.376,58.696 194.511,58.444 208.646,58.190 222.780,57.936 236.915,57.680 251.049,57.424 265.184,57.167 279.318,56.910 293.453,56.654 307.587,56.399 321.722,56.145 335.856,55.893 349.991,55.643 364.125,55.395 378.260,55.151 392.395,54.910 406.529,54.673 420.664,54.441 434.798,54.214 448.933,53.992 463.067,53.776 477.202,53.567 491.336,53.365 505.471,53.170 519.605,52.982 533.740,52.803 547.875,52.633 562.009,52.471 576.144,52.319 590.278,52.815 604.413,60.212 618.547,65.268 632.682,69.771 646.816,75.317 660.951,78.470 675.085,81.910 689.220,85.641 703.354,85.598 717.489,89.626 731.624,93.942 745.758,93.918 759.893,98.524 774.027,98.511 788.162,98.502 802.296,103.396 "/>
<polyline fill="none" stroke="#2a9d55" stroke-width="2.2" points="109.704,59.923 123.838,59.682 137.973,59.429 152.107,59.194 166.242,58.939 180.376,58.678 194.511,58.440 208.646,58.202 222.780,57.916 236.915,57.665 251.049,57.430 265.184,57.179 279.318,56.912 293.453,56.696 307.587,56.388 321.722,56.188 335.856,55.905 349.991,55.743 364.125,55.477 378.260,55.239 392.395,54.957 406.529,54.816 420.664,54.498 434.798,54.311 448.933,54.180 463.067,53.968 477.202,53.714 491.336,53.513 505.471,53.421 519.605,53.229 533.740,52.992 547.875,52.748 562.009,52.886 576.144,52.516 590.278,52.600 604.413,52.103 618.547,57.425 632.682,63.277 646.816,67.140 660.951,71.595 675.085,75.348 689.220,78.842 703.354,81.704 717.489,83.304 731.624,85.639 745.758,88.786 759.893,87.597 774.027,92.423 788.162,93.764 802.296,97.335 "/>
<polyline fill="none" stroke="#333333" stroke-width="2.2" points="109.704,62.090 123.838,62.090 137.973,62.090 152.107,62.090 166.242,62.090 180.376,62.090 194.511,62.090 208.646,62.090 222.780,62.090 236.915,62.090 251.049,62.090 265.184,62.090 279.318,62.090 293.453,62.090 307.587,62.090 321.722,62.090 335.856,62.090 349.991,62.090 364.125,62.090 378.260,62.090 392.395,62.090 406.529,62.090 420.664,62.090 434.798,62.090 448.933,62.090 463.067,62.090 477.202,62.090 491.336,62.090 505.471,62.090 519.605,62.090 533.740,62.090 547.875,62.090 562.009,62.090 576.144,62.090 590.278,62.090 604.413,62.090 618.547,62.090 632.682,62.090 646.816,62.090 660.951,62.090 675.085,62.090 689.220,62.090 703.354,62.090 717.489,62.090 731.624,62.090 745.758,62.090 759.893,62.090 774.027,62.090 788.162,62.090 802.296,62.090 "/>
<line x1="645" y1="62" x2="673" y2="62" stroke="#c43c39" stroke-width="2.5"/>
<text x="681" y="66" font-family="Arial" font-size="12">small detector</text>
<line x1="645" y1="80" x2="673" y2="80" stroke="#2a9d55" stroke-width="2.5"/>
<text x="681" y="84" font-family="Arial" font-size="12">random detector</text>
<line x1="645" y1="98" x2="673" y2="98" stroke="#333333" stroke-width="2.5"/>
<text x="681" y="102" font-family="Arial" font-size="12">classical t=0.1</text>
</svg>
