<svg xmlns="http://www.w3.org/2000/svg" width="860" height="560" viewBox="0 0 860 560">
<rect width="100%" height="100%" fill="white"/>
<text x="430" y="28" text-anchor="middle" font-family="Arial" font-size="18" font-weight="700">Fig. 3.9: small-detector tbar by n</text>
<line x1="82" y1="488" x2="830" y2="488" stroke="#222" stroke-width="1.5"/>
<line x1="82" y1="48" x2="82" y2="488" stroke="#222" stroke-width="1.5"/>
<line x1="82.000" y1="488" x2="82.000" y2="494" stroke="#222"/>
<text x="82.000" y="512" text-anchor="middle" font-family="Arial" font-size="12">-0.8800</text>
<line x1="76" y1="488.000" x2="82" y2="488.000" stroke="#222"/>
<line x1="82" y1="488.000" x2="830" y2="488.000" stroke="#e8e8e8"/>
<text x="72" y="492.000" text-anchor="end" font-family="Arial" font-size="12">-0.0192</text>
<line x1="231.600" y1="488" x2="231.600" y2="494" stroke="#222"/>
<text x="231.600" y="512" text-anchor="middle" font-family="Arial" font-size="12">20.0720</text>
<line x1="76" y1="400.000" x2="82" y2="400.000" stroke="#222"/>
<line x1="82" y1="400.000" x2="830" y2="400.000" stroke="#e8e8e8"/>
<text x="72" y="404.000" text-anchor="end" font-family="Arial" font-size="12">0.0130</text>
<line x1="381.200" y1="488" x2="381.200" y2="494" stroke="#222"/>
<text x="381.200" y="512" text-anchor="middle" font-family="Arial" font-size="12">41.0240</text>
<line x1="76" y1="312.000" x2="82" y2="312.000" stroke="#222"/>
<line x1="82" y1="312.000" x2="830" y2="312.000" stroke="#e8e8e8"/>
<text x="72" y="316.000" text-anchor="end" font-family="Arial" font-size="12">0.0451</text>
<line x1="530.800" y1="488" x2="530.800" y2="494" stroke="#222"/>
<text x="530.800" y="512" text-anchor="middle" font-family="Arial" font-size="12">61.9760</text>
<line x1="76" y1="224.000" x2="82" y2="224.000" stroke="#222"/>
<line x1="82" y1="224.000" x2="830" y2="224.000" stroke="#e8e8e8"/>
<text x="72" y="228.000" text-anchor="end" font-family="Arial" font-size="12">0.0772</text>
<line x1="680.400" y1="488" x2="680.400" y2="494" stroke="#222"/>
<text x="680.400" y="512" text-anchor="middle" font-family="Arial" font-size="12">82.9280</text>
<line x1="76" y1="136.000" x2="82" y2="136.000" stroke="#222"/>
<line x1="82" y1="136.000" x2="830" y2="136.000" stroke="#e8e8e8"/>
<text x="72" y="140.000" text-anchor="end" font-family="Arial" font-size="12">0.1093</text>
<line x1="830.000" y1="488" x2="830.000" y2="494" stroke="#222"/>
<text x="830.000" y="512" text-anchor="middle" font-family="Arial" font-size="12">103.8800</text>
<line x1="76" y1="48.000" x2="82" y2="48.000" stroke="#222"/>
<line x1="82" y1="48.000" x2="830" y2="48.000" stroke="#e8e8e8"/>
<text x="72" y="52.000" text-anchor="end" font-family="Arial" font-size="12">0.1414</text>
<text x="430" y="542" text-anchor="middle" font-family="Arial" font-size="15">n</text>
<text transform="translate(24 280) rotate(-90)" text-anchor="middle" font-family="Arial" font-size="15">tbar</text>
<polyline fill="none" stroke="#1f4e79" stroke-width="2.2" points="109.704,161.447 116.844,158.672 123.984,160.222 131.124,160.069 138.264,159.255 145.404,160.208 152.544,161.811 159.685,160.452 166.825,159.883 173.965,159.870 181.105,159.881 188.245,159.885 195.385,159.885 202.525,159.884 209.666,159.881 216.806,159.877 223.946,159.873 231.086,159.868 238.226,159.863 245.366,159.858 252.506,159.853 259.646,159.847 266.787,159.841 273.927,159.836 281.067,159.830 288.207,159.823 295.347,159.817 302.487,159.811 309.627,159.805 316.767,159.798 323.908,159.792 331.048,159.785 338.188,159.779 345.328,159.772 352.468,159.766 359.608,159.759 366.748,159.752 373.889,159.746 381.029,159.739 388.169,159.732 395.309,159.725 402.449,159.719 409.589,159.712 416.729,159.705 423.869,159.698 431.010,159.691 438.150,159.684 445.290,159.677 452.430,159.670 459.570,159.663 466.710,159.656 473.850,159.649 480.990,159.642 488.131,159.635 495.271,159.628 502.411,159.621 509.551,159.614 516.691,159.607 523.831,159.600 530.971,159.593 538.111,159.586 545.252,159.578 552.392,159.571 559.532,159.564 566.672,159.557 573.812,159.550 580.952,159.543 588.092,159.536 595.233,159.528 602.373,159.521 609.513,159.514 616.653,159.507 623.793,159.500 630.933,159.493 638.073,159.485 645.213,159.478 652.354,159.471 659.494,159.464 666.634,159.457 673.774,159.449 680.914,159.442 688.054,159.435 695.194,159.428 702.334,159.421 709.475,159.413 716.615,159.406 723.755,159.399 730.895,159.392 738.035,159.384 745.175,159.377 752.315,159.370 759.456,159.363 766.596,159.356 773.736,159.348 780.876,159.341 788.016,159.334 795.156,159.327 802.296,159.320 "/>
<polyline fill="none" stroke="#c43c39" stroke-width="2.2" points="109.704,160.183 116.844,155.123 123.984,163.656 131.124,156.452 138.264,151.740 145.404,155.634 152.544,168.849 159.685,161.135 166.825,158.169 173.965,158.056 181.105,158.033 188.245,157.982 195.385,157.916 202.525,157.842 209.666,157.763 216.806,157.681 223.946,157.596 231.086,157.509 238.226,157.421 245.366,157.331 252.506,157.240 259.646,157.149 266.787,157.056 273.927,156.963 281.067,156.870 288.207,156.776 295.347,156.682 302.487,156.588 309.627,156.494 316.767,156.401 323.908,156.307 331.048,156.214 338.188,156.122 345.328,156.030 352.468,155.939 359.608,155.849 366.748,155.760 373.889,155.672 381.029,155.585 388.169,155.500 395.309,155.416 402.449,155.334 409.589,155.253 416.729,155.174 423.869,155.096 431.010,155.021 438.150,154.948 445.290,154.877 452.430,154.808 459.570,154.741 466.710,154.677 473.850,154.615 480.990,154.555 488.131,154.498 495.271,154.903 502.411,157.326 509.551,159.418 516.691,162.458 523.831,163.959 530.971,165.606 538.111,167.391 545.252,169.305 552.392,171.337 559.532,170.138 566.672,172.171 573.812,174.301 580.952,172.987 588.092,175.105 595.233,177.304 602.373,175.888 609.513,178.064 616.653,180.305 623.793,178.803 630.933,181.015 638.073,179.521 645.213,181.703 652.354,183.931 659.494,182.370 666.634,184.564 673.774,183.018 680.914,185.177 688.054,183.646 695.194,185.772 702.334,184.256 709.475,186.348 716.615,184.848 723.755,186.908 730.895,185.424 738.035,187.451 745.175,185.983 752.315,187.978 759.456,186.527 766.596,188.491 773.736,187.055 780.876,188.989 788.016,187.569 795.156,189.472 802.296,188.069 "/>
<polyline fill="none" stroke="#2a9d55" stroke-width="2.2" points="109.704,78.345 116.844,92.820 123.984,89.734 131.124,102.312 138.264,176.565 145.404,106.977 152.544,142.603 159.685,168.461 166.825,165.262 173.965,163.924 181.105,163.309 188.245,190.250 195.385,202.974 202.525,216.120 209.666,229.033 216.806,241.144 223.946,284.141 231.086,294.004 238.226,303.113 245.366,311.566 252.506,291.216 259.646,299.575 266.787,307.427 273.927,314.812 281.067,321.780 288.207,328.386 295.347,334.694 302.487,319.288 309.627,326.234 316.767,333.215 323.908,320.859 331.048,324.279 338.188,325.212 345.328,327.533 352.468,331.119 359.608,335.114 366.748,356.518 373.889,359.690 381.029,362.834 388.169,365.881 395.309,368.802 402.449,371.590 409.589,374.246 416.729,376.775 423.869,379.186 431.010,395.301 438.150,397.231 445.290,399.082 452.430,400.858 459.570,402.563 466.710,404.202 473.850,405.778 480.990,407.296 488.131,408.758 495.271,410.168 502.411,411.530 509.551,412.846 516.691,414.118 523.831,415.348 530.971,416.540 538.111,428.269 545.252,429.225 552.392,430.151 559.532,431.049 566.672,431.921 573.812,432.768 580.952,433.590 588.092,434.389 595.233,435.166 602.373,435.921 609.513,436.656 616.653,437.372 623.793,438.069 630.933,438.747 638.073,439.408 645.213,440.053 652.354,440.682 659.494,441.295 666.634,441.893 673.774,442.477 680.914,443.047 688.054,443.603 695.194,444.147 702.334,444.678 709.475,445.197 716.615,445.705 723.755,446.201 730.895,446.687 738.035,447.162 745.175,447.627 752.315,455.226 759.456,455.595 766.596,455.956 773.736,456.310 780.876,456.656 788.016,456.996 795.156,457.329 802.296,457.655 "/>
<polyline fill="none" stroke="#333333" stroke-width="2.2" points="109.704,161.495 116.844,161.495 123.984,161.495 131.124,161.495 138.264,161.495 145.404,161.495 152.544,161.495 159.685,161.495 166.825,161.495 173.965,161.495 181.105,161.495 188.245,161.495 195.385,161.495 202.525,161.495 209.666,161.495 216.806,161.495 223.946,161.495 231.086,161.495 238.226,161.495 245.366,161.495 252.506,161.495 259.646,161.495 266.787,161.495 273.927,161.495 281.067,161.495 288.207,161.495 295.347,161.495 302.487,161.495 309.627,161.495 316.767,161.495 323.908,161.495 331.048,161.495 338.188,161.495 345.328,161.495 352.468,161.495 359.608,161.495 366.748,161.495 373.889,161.495 381.029,161.495 388.169,161.495 395.309,161.495 402.449,161.495 409.589,161.495 416.729,161.495 423.869,161.495 431.010,161.495 438.150,161.495 445.290,161.495 452.430,161.495 459.570,161.495 466.710,161.495 473.850,161.495 480.990,161.495 488.131,161.495 495.271,161.495 502.411,161.495 509.551,161.495 516.691,161.495 523.831,161.495 530.971,161.495 538.111,161.495 545.252,161.495 552.392,161.495 559.532,161.495 566.672,161.495 573.812,161.495 580.952,161.495 588.092,161.495 595.233,161.495 602.373,161.495 609.513,161.495 616.653,161.495 623.793,161.495 630.933,161.495 638.073,161.495 645.213,161.495 652.354,161.495 659.494,161.495 666.634,161.495 673.774,161.495 680.914,161.495 688.054,161.495 695.194,161.495 702.334,161.495 709.475,161.495 716.615,161.495 723.755,161.495 730.895,161.495 738.035,161.495 745.175,161.495 752.315,161.495 759.456,161.495 766.596,161.495 773.736,161.495 780.876,161.495 788.016,161.495 795.156,161.495 802.296,161.495 "/>
<line x1="645" y1="62" x2="673" y2="62" stroke="#1f4e79" stroke-width="2.5"/>
<text x="681" y="66" font-family="Arial" font-size="12">delta1=0.005</text>
<line x1="645" y1="80" x2="673" y2="80" stroke="#c43c39" stroke-width="2.5"/>
<text x="681" y="84" font-family="Arial" font-size="12">delta1=0.05</text>
<line x1="645" y1="98" x2="673" y2="98" stroke="#2a9d55" stroke-width="2.5"/>
<text x="681" y="102" font-family="Arial" font-size="12">delta1=0.5</text>
<line x1="645" y1="116" x2="673" y2="116" stroke="#333333" stroke-width="2.5"/>
<text x="681" y="120" font-family="Arial" font-size="12">classical t=0.1</text>
</svg>
