<svg xmlns="http://www.w3.org/2000/svg" width="860" height="560" viewBox="0 0 860 560">
<rect width="100%" height="100%" fill="white"/>
<text x="430" y="28" text-anchor="middle" font-family="Arial" font-size="18" font-weight="700">Fig. 3.7: detection probability for delta1=0.035</text>
<line x1="82" y1="488" x2="830" y2="488" stroke="#222" stroke-width="1.5"/>
<line x1="82" y1="48" x2="82" y2="488" stroke="#222" stroke-width="1.5"/>
<line x1="82.000" y1="488" x2="82.000" y2="494" stroke="#222"/>
<text x="82.000" y="512" text-anchor="middle" font-family="Arial" font-size="12">-0.0296</text>
<line x1="76" y1="488.000" x2="82" y2="488.000" stroke="#222"/>
<line x1="82" y1="488.000" x2="830" y2="488.000" stroke="#e8e8e8"/>
<text x="72" y="492.000" text-anchor="end" font-family="Arial" font-size="12">-0.0031</text>
<line x1="231.600" y1="488" x2="231.600" y2="494" stroke="#222"/>
<text x="231.600" y="512" text-anchor="middle" font-family="Arial" font-size="12">0.0222</text>
<line x1="76" y1="400.000" x2="82" y2="400.000" stroke="#222"/>
<line x1="82" y1="400.000" x2="830" y2="400.000" stroke="#e8e8e8"/>
<text x="72" y="404.000" text-anchor="end" font-family="Arial" font-size="12">0.0059</text>
<line x1="381.200" y1="488" x2="381.200" y2="494" stroke="#222"/>
<text x="381.200" y="512" text-anchor="middle" font-family="Arial" font-size="12">0.0741</text>
<line x1="76" y1="312.000" x2="82" y2="312.000" stroke="#222"/>
<line x1="82" y1="312.000" x2="830" y2="312.000" stroke="#e8e8e8"/>
<text x="72" y="316.000" text-anchor="end" font-family="Arial" font-size="12">0.0150</text>
<line x1="530.800" y1="488" x2="530.800" y2="494" stroke="#222"/>
<text x="530.800" y="512" text-anchor="middle" font-family="Arial" font-size="12">0.1259</text>
<line x1="76" y1="224.000" x2="82" y2="224.000" stroke="#222"/>
<line x1="82" y1="224.000" x2="830" y2="224.000" stroke="#e8e8e8"/>
<text x="72" y="228.000" text-anchor="end" font-family="Arial" font-size="12">0.0240</text>
<line x1="680.400" y1="488" x2="680.400" y2="494" stroke="#222"/>
<text x="680.400" y="512" text-anchor="middle" font-family="Arial" font-size="12">0.1778</text>
<line x1="76" y1="136.000" x2="82" y2="136.000" stroke="#222"/>
<line x1="82" y1="136.000" x2="830" y2="136.000" stroke="#e8e8e8"/>
<text x="72" y="140.000" text-anchor="end" font-family="Arial" font-size="12">0.0330</text>
<line x1="830.000" y1="488" x2="830.000" y2="494" stroke="#222"/>
<text x="830.000" y="512" text-anchor="middle" font-family="Arial" font-size="12">0.2296</text>
<line x1="76" y1="48.000" x2="82" y2="48.000" stroke="#222"/>
<line x1="82" y1="48.000" x2="830" y2="48.000" stroke="#e8e8e8"/>
<text x="72" y="52.000" text-anchor="end" font-family="Arial" font-size="12">0.0421</text>
<text x="430" y="542" text-anchor="middle" font-family="Arial" font-size="15">t_n</text>
<text transform="translate(24 280) rotate(-90)" text-anchor="middle" font-family="Arial" font-size="15">pi_n</text>
<polyline fill="none" stroke="#c43c39" stroke-width="2.2" points="109.704,457.652 116.700,457.651 123.695,457.649 130.691,457.645 137.687,457.639 144.683,457.630 151.679,457.616 158.675,457.596 165.671,457.565 172.667,457.522 179.663,457.460 186.658,457.371 193.654,457.247 200.650,457.074 207.646,456.835 214.642,456.507 221.638,456.064 228.634,455.468 235.630,454.678 242.626,453.639 249.621,452.288 256.617,450.551 263.613,448.341 270.609,445.562 277.605,442.103 284.601,437.847 291.597,432.667 298.593,426.434 305.588,419.018 312.584,410.295 319.580,400.157 326.576,388.513 333.572,375.304 340.568,360.506 347.564,344.140 354.560,326.281 361.556,307.058 368.551,286.661 375.547,265.340 382.543,243.404 389.539,221.213 396.535,199.173 403.531,177.722 410.527,157.317 417.523,138.417 424.519,121.466 431.514,106.876 438.510,95.011 445.506,86.169 452.502,80.569 459.498,78.345 466.494,79.538 473.490,84.097 480.486,91.879 487.481,102.660 494.477,116.143 501.473,131.975 508.469,149.757 515.465,169.066 522.461,189.468 529.457,210.534 536.453,231.854 543.449,253.051 550.444,273.786 557.440,293.771 564.436,312.767 571.432,330.588 578.428,347.103 585.424,362.228 592.420,375.925 599.416,388.195 606.412,457.655 613.407,457.655 620.403,457.655 627.399,457.655 634.395,457.655 641.391,457.655 648.387,457.655 655.383,457.655 662.379,457.655 669.374,457.655 676.370,457.655 683.366,457.655 690.362,457.655 697.358,457.655 704.354,457.655 711.350,457.655 718.346,457.655 725.342,457.655 732.337,457.655 739.333,457.655 746.329,457.655 753.325,457.655 760.321,457.655 767.317,457.655 774.313,457.655 781.309,457.655 788.305,457.655 795.300,457.655 802.296,457.655 "/>
<polyline fill="none" stroke="#2a9d55" stroke-width="2.2" points="109.704,457.652 116.700,457.651 123.695,457.649 130.691,457.646 137.687,457.640 144.683,457.631 151.679,457.617 158.675,457.598 165.671,457.568 172.667,457.526 179.663,457.467 186.658,457.382 193.654,457.262 200.650,457.093 207.646,456.862 214.642,456.552 221.638,456.129 228.634,455.531 235.630,454.768 242.626,453.818 249.621,452.535 256.617,450.778 263.613,448.778 270.609,446.006 277.605,442.847 284.601,438.629 291.597,433.559 298.593,427.905 305.588,420.388 312.584,412.517 319.580,402.527 326.576,391.369 333.572,378.568 340.568,365.189 347.564,349.639 354.560,332.465 361.556,314.021 368.551,294.055 375.547,274.699 382.543,252.056 389.539,231.147 396.535,213.472 403.531,191.191 410.527,172.199 417.523,152.109 424.519,139.473 431.514,122.101 438.510,114.896 445.506,103.994 452.502,98.389 459.498,96.968 466.494,100.961 473.490,103.124 480.486,107.599 487.481,122.375 494.477,133.137 501.473,148.035 508.469,166.065 515.465,184.361 522.461,204.797 529.457,223.006 536.453,244.604 543.449,264.170 550.444,283.159 557.440,301.773 564.436,320.208 571.432,337.644 578.428,352.767 585.424,367.816 592.420,380.758 599.416,391.654 606.412,401.993 613.407,411.214 620.403,418.609 627.399,425.482 634.395,431.381 641.391,436.307 648.387,440.303 655.383,443.617 662.379,446.309 669.374,448.718 676.370,450.495 683.366,452.037 690.362,453.369 697.358,454.352 704.354,455.116 711.350,455.781 718.346,456.242 725.342,456.592 732.337,456.826 739.333,457.035 746.329,457.191 753.325,457.337 760.321,457.419 767.317,457.481 774.313,457.525 781.309,457.567 788.305,457.592 795.300,457.610 802.296,457.623 "/>
<line x1="645" y1="62" x2="673" y2="62" stroke="#c43c39" stroke-width="2.5"/>
<text x="681" y="66" font-family="Arial" font-size="12">small detector</text>
<line x1="645" y1="80" x2="673" y2="80" stroke="#2a9d55" stroke-width="2.5"/>
<text x="681" y="84" font-family="Arial" font-size="12">random detector</text>
</svg>
