<svg xmlns="http://www.w3.org/2000/svg" width="860" height="560" viewBox="0 0 860 560">
<rect width="100%" height="100%" fill="white"/>
<text x="430" y="28" text-anchor="middle" font-family="Arial" font-size="18" font-weight="700">Fig. 3.1: a1 by detector width</text>
<line x1="82" y1="488" x2="830" y2="488" stroke="#222" stroke-width="1.5"/>
<line x1="82" y1="48" x2="82" y2="488" stroke="#222" stroke-width="1.5"/>
<line x1="82.000" y1="488" x2="82.000" y2="494" stroke="#222"/>
<text x="82.000" y="512" text-anchor="middle" font-family="Arial" font-size="12">-0.0198</text>
<line x1="76" y1="488.000" x2="82" y2="488.000" stroke="#222"/>
<line x1="82" y1="488.000" x2="830" y2="488.000" stroke="#e8e8e8"/>
<text x="72" y="492.000" text-anchor="end" font-family="Arial" font-size="12">-0.0002</text>
<line x1="231.600" y1="488" x2="231.600" y2="494" stroke="#222"/>
<text x="231.600" y="512" text-anchor="middle" font-family="Arial" font-size="12">0.0872</text>
<line x1="76" y1="400.000" x2="82" y2="400.000" stroke="#222"/>
<line x1="82" y1="400.000" x2="830" y2="400.000" stroke="#e8e8e8"/>
<text x="72" y="404.000" text-anchor="end" font-family="Arial" font-size="12">0.0005</text>
<line x1="381.200" y1="488" x2="381.200" y2="494" stroke="#222"/>
<text x="381.200" y="512" text-anchor="middle" font-family="Arial" font-size="12">0.1941</text>
<line x1="76" y1="312.000" x2="82" y2="312.000" stroke="#222"/>
<line x1="82" y1="312.000" x2="830" y2="312.000" stroke="#e8e8e8"/>
<text x="72" y="316.000" text-anchor="end" font-family="Arial" font-size="12">0.0011</text>
<line x1="530.800" y1="488" x2="530.800" y2="494" stroke="#222"/>
<text x="530.800" y="512" text-anchor="middle" font-family="Arial" font-size="12">0.3010</text>
<line x1="76" y1="224.000" x2="82" y2="224.000" stroke="#222"/>
<line x1="82" y1="224.000" x2="830" y2="224.000" stroke="#e8e8e8"/>
<text x="72" y="228.000" text-anchor="end" font-family="Arial" font-size="12">0.0018</text>
<line x1="680.400" y1="488" x2="680.400" y2="494" stroke="#222"/>
<text x="680.400" y="512" text-anchor="middle" font-family="Arial" font-size="12">0.4079</text>
<line x1="76" y1="136.000" x2="82" y2="136.000" stroke="#222"/>
<line x1="82" y1="136.000" x2="830" y2="136.000" stroke="#e8e8e8"/>
<text x="72" y="140.000" text-anchor="end" font-family="Arial" font-size="12">0.0025</text>
<line x1="830.000" y1="488" x2="830.000" y2="494" stroke="#222"/>
<text x="830.000" y="512" text-anchor="middle" font-family="Arial" font-size="12">0.5149</text>
<line x1="76" y1="48.000" x2="82" y2="48.000" stroke="#222"/>
<line x1="82" y1="48.000" x2="830" y2="48.000" stroke="#e8e8e8"/>
<text x="72" y="52.000" text-anchor="end" font-family="Arial" font-size="12">0.0031</text>
<text x="430" y="542" text-anchor="middle" font-family="Arial" font-size="15">delta1</text>
<text transform="translate(24 280) rotate(-90)" text-anchor="middle" font-family="Arial" font-size="15">a1</text>
<polyline fill="none" stroke="#1f4e79" stroke-width="2.2" points="109.704,457.655 116.700,433.737 123.695,422.822 130.691,414.428 137.687,407.336 144.683,401.076 151.679,395.401 158.675,390.168 165.671,385.281 172.667,380.674 179.663,376.299 186.658,372.119 193.654,368.105 200.650,364.234 207.646,360.489 214.642,356.852 221.638,353.311 228.634,349.856 235.630,346.476 242.626,343.164 249.621,339.912 256.617,336.713 263.613,333.562 270.609,330.454 277.605,327.384 284.601,324.347 291.597,321.342 298.593,318.362 305.588,315.407 312.584,312.472 319.580,309.555 326.576,306.653 333.572,303.764 340.568,300.886 347.564,298.017 354.560,295.155 361.556,292.298 368.551,289.444 375.547,286.592 382.543,283.740 389.539,280.887 396.535,278.031 403.531,275.172 410.527,272.307 417.523,269.436 424.519,266.557 431.514,263.670 438.510,260.773 445.506,257.866 452.502,254.946 459.498,252.014 466.494,249.069 473.490,246.109 480.486,243.134 487.481,240.143 494.477,237.135 501.473,234.109 508.469,231.065 515.465,228.001 522.461,224.918 529.457,221.814 536.453,218.688 543.449,215.541 550.444,212.371 557.440,209.177 564.436,205.960 571.432,202.718 578.428,199.451 585.424,196.158 592.420,192.839 599.416,189.493 606.412,186.120 613.407,182.718 620.403,179.287 627.399,175.828 634.395,172.339 641.391,168.819 648.387,165.269 655.383,161.687 662.379,158.074 669.374,154.428 676.370,150.749 683.366,147.037 690.362,143.291 697.358,139.510 704.354,135.695 711.350,131.844 718.346,127.958 725.342,124.035 732.337,120.075 739.333,116.078 746.329,112.043 753.325,107.970 760.321,103.858 767.317,99.706 774.313,95.515 781.309,91.284 788.305,87.012 795.300,82.699 802.296,78.345 "/>
<polyline fill="none" stroke="#c43c39" stroke-width="2.2" points="109.704,457.655 116.700,433.738 123.695,422.829 130.691,414.447 137.687,407.375 144.683,401.143 151.679,395.508 158.675,390.325 165.671,385.501 172.667,380.969 179.663,376.683 186.658,372.605 193.654,368.710 200.650,364.973 207.646,361.377 214.642,357.908 221.638,354.552 228.634,351.299 235.630,348.141 242.626,345.069 249.621,342.078 256.617,339.159 263.613,336.310 270.609,333.525 277.605,330.799 284.601,328.130 291.597,325.514 298.593,322.947 305.588,320.428 312.584,317.953 319.580,315.520 326.576,313.128 333.572,310.774 340.568,308.456 347.564,306.173 354.560,303.924 361.556,301.706 368.551,299.519 375.547,297.362 382.543,295.232 389.539,293.130 396.535,291.054 403.531,289.003 410.527,286.976 417.523,284.973 424.519,282.992 431.514,281.033 438.510,279.095 445.506,277.178 452.502,275.281 459.498,273.403 466.494,271.544 473.490,269.702 480.486,267.879 487.481,266.072 494.477,264.283 501.473,262.509 508.469,260.751 515.465,259.009 522.461,257.281 529.457,255.568 536.453,253.869 543.449,252.185 550.444,250.513 557.440,248.855 564.436,247.210 571.432,245.577 578.428,243.957 585.424,242.349 592.420,240.752 599.416,239.167 606.412,237.594 613.407,236.031 620.403,234.479 627.399,232.938 634.395,231.407 641.391,229.886 648.387,228.376 655.383,226.875 662.379,225.383 669.374,223.901 676.370,222.429 683.366,220.965 690.362,219.510 697.358,218.064 704.354,216.627 711.350,215.198 718.346,213.777 725.342,212.364 732.337,210.960 739.333,209.563 746.329,208.174 753.325,206.793 760.321,205.419 767.317,204.053 774.313,202.693 781.309,201.341 788.305,199.996 795.300,198.658 802.296,197.326 "/>
<polyline fill="none" stroke="#2a9d55" stroke-width="2.2" points="109.704,457.655 116.700,433.731 123.695,422.844 130.691,414.475 137.687,407.366 144.683,401.172 151.679,395.491 158.675,390.331 165.671,385.236 172.667,380.752 179.663,376.371 186.658,372.541 193.654,368.494 200.650,364.296 207.646,360.810 214.642,357.840 221.638,354.164 228.634,350.123 235.630,347.245 242.626,343.389 249.621,341.524 256.617,338.423 263.613,334.722 270.609,332.146 277.605,329.197 284.601,326.272 291.597,324.089 298.593,320.987 305.588,316.902 312.584,315.583 319.580,312.785 326.576,309.170 333.572,306.609 340.568,305.173 347.564,301.801 354.560,300.207 361.556,298.876 368.551,295.878 375.547,291.372 382.543,288.771 389.539,285.824 396.535,282.973 403.531,280.668 410.527,279.284 417.523,276.920 424.519,273.533 431.514,272.908 438.510,271.030 445.506,267.018 452.502,266.399 459.498,262.705 466.494,258.823 473.490,259.514 480.486,256.398 487.481,250.186 494.477,251.578 501.473,252.078 508.469,247.000 515.465,243.588 522.461,239.330 529.457,241.876 536.453,236.822 543.449,232.422 550.444,232.149 557.440,228.928 564.436,223.232 571.432,228.692 578.428,223.498 585.424,219.469 592.420,218.188 599.416,216.020 606.412,209.638 613.407,206.696 620.403,204.460 627.399,202.899 634.395,206.684 641.391,198.165 648.387,201.468 655.383,198.888 662.379,193.111 669.374,184.968 676.370,185.273 683.366,186.504 690.362,183.313 697.358,180.705 704.354,173.628 711.350,173.696 718.346,167.712 725.342,166.064 732.337,171.232 739.333,160.048 746.329,165.798 753.325,164.137 760.321,158.742 767.317,147.778 774.313,145.775 781.309,151.390 788.305,144.177 795.300,145.796 802.296,143.700 "/>
<circle cx="109.704" cy="457.655" r="2.6" fill="#2a9d55"/>
<circle cx="116.700" cy="433.731" r="2.6" fill="#2a9d55"/>
<circle cx="123.695" cy="422.844" r="2.6" fill="#2a9d55"/>
<circle cx="130.691" cy="414.475" r="2.6" fill="#2a9d55"/>
<circle cx="137.687" cy="407.366" r="2.6" fill="#2a9d55"/>
<circle cx="144.683" cy="401.172" r="2.6" fill="#2a9d55"/>
<circle cx="151.679" cy="395.491" r="2.6" fill="#2a9d55"/>
<circle cx="158.675" cy="390.331" r="2.6" fill="#2a9d55"/>
<circle cx="165.671" cy="385.236" r="2.6" fill="#2a9d55"/>
<circle cx="172.667" cy="380.752" r="2.6" fill="#2a9d55"/>
<circle cx="179.663" cy="376.371" r="2.6" fill="#2a9d55"/>
<circle cx="186.658" cy="372.541" r="2.6" fill="#2a9d55"/>
<circle cx="193.654" cy="368.494" r="2.6" fill="#2a9d55"/>
<circle cx="200.650" cy="364.296" r="2.6" fill="#2a9d55"/>
<circle cx="207.646" cy="360.810" r="2.6" fill="#2a9d55"/>
<circle cx="214.642" cy="357.840" r="2.6" fill="#2a9d55"/>
<circle cx="221.638" cy="354.164" r="2.6" fill="#2a9d55"/>
<circle cx="228.634" cy="350.123" r="2.6" fill="#2a9d55"/>
<circle cx="235.630" cy="347.245" r="2.6" fill="#2a9d55"/>
<circle cx="242.626" cy="343.389" r="2.6" fill="#2a9d55"/>
<circle cx="249.621" cy="341.524" r="2.6" fill="#2a9d55"/>
<circle cx="256.617" cy="338.423" r="2.6" fill="#2a9d55"/>
<circle cx="263.613" cy="334.722" r="2.6" fill="#2a9d55"/>
<circle cx="270.609" cy="332.146" r="2.6" fill="#2a9d55"/>
<circle cx="277.605" cy="329.197" r="2.6" fill="#2a9d55"/>
<circle cx="284.601" cy="326.272" r="2.6" fill="#2a9d55"/>
<circle cx="291.597" cy="324.089" r="2.6" fill="#2a9d55"/>
<circle cx="298.593" cy="320.987" r="2.6" fill="#2a9d55"/>
<circle cx="305.588" cy="316.902" r="2.6" fill="#2a9d55"/>
<circle cx="312.584" cy="315.583" r="2.6" fill="#2a9d55"/>
<circle cx="319.580" cy="312.785" r="2.6" fill="#2a9d55"/>
<circle cx="326.576" cy="309.170" r="2.6" fill="#2a9d55"/>
<circle cx="333.572" cy="306.609" r="2.6" fill="#2a9d55"/>
<circle cx="340.568" cy="305.173" r="2.6" fill="#2a9d55"/>
<circle cx="347.564" cy="301.801" r="2.6" fill="#2a9d55"/>
<circle cx="354.560" cy="300.207" r="2.6" fill="#2a9d55"/>
<circle cx="361.556" cy="298.876" r="2.6" fill="#2a9d55"/>
<circle cx="368.551" cy="295.878" r="2.6" fill="#2a9d55"/>
<circle cx="375.547" cy="291.372" r="2.6" fill="#2a9d55"/>
<circle cx="382.543" cy="288.771" r="2.6" fill="#2a9d55"/>
<circle cx="389.539" cy="285.824" r="2.6" fill="#2a9d55"/>
<circle cx="396.535" cy="282.973" r="2.6" fill="#2a9d55"/>
<circle cx="403.531" cy="280.668" r="2.6" fill="#2a9d55"/>
<circle cx="410.527" cy="279.284" r="2.6" fill="#2a9d55"/>
<circle cx="417.523" cy="276.920" r="2.6" fill="#2a9d55"/>
<circle cx="424.519" cy="273.533" r="2.6" fill="#2a9d55"/>
<circle cx="431.514" cy="272.908" r="2.6" fill="#2a9d55"/>
<circle cx="438.510" cy="271.030" r="2.6" fill="#2a9d55"/>
<circle cx="445.506" cy="267.018" r="2.6" fill="#2a9d55"/>
<circle cx="452.502" cy="266.399" r="2.6" fill="#2a9d55"/>
<circle cx="459.498" cy="262.705" r="2.6" fill="#2a9d55"/>
<circle cx="466.494" cy="258.823" r="2.6" fill="#2a9d55"/>
<circle cx="473.490" cy="259.514" r="2.6" fill="#2a9d55"/>
<circle cx="480.486" cy="256.398" r="2.6" fill="#2a9d55"/>
<circle cx="487.481" cy="250.186" r="2.6" fill="#2a9d55"/>
<circle cx="494.477" cy="251.578" r="2.6" fill="#2a9d55"/>
<circle cx="501.473" cy="252.078" r="2.6" fill="#2a9d55"/>
<circle cx="508.469" cy="247.000" r="2.6" fill="#2a9d55"/>
<circle cx="515.465" cy="243.588" r="2.6" fill="#2a9d55"/>
<circle cx="522.461" cy="239.330" r="2.6" fill="#2a9d55"/>
<circle cx="529.457" cy="241.876" r="2.6" fill="#2a9d55"/>
<circle cx="536.453" cy="236.822" r="2.6" fill="#2a9d55"/>
<circle cx="543.449" cy="232.422" r="2.6" fill="#2a9d55"/>
<circle cx="550.444" cy="232.149" r="2.6" fill="#2a9d55"/>
<circle cx="557.440" cy="228.928" r="2.6" fill="#2a9d55"/>
<circle cx="564.436" cy="223.232" r="2.6" fill="#2a9d55"/>
<circle cx="571.432" cy="228.692" r="2.6" fill="#2a9d55"/>
<circle cx="578.428" cy="223.498" r="2.6" fill="#2a9d55"/>
<circle cx="585.424" cy="219.469" r="2.6" fill="#2a9d55"/>
<circle cx="592.420" cy="218.188" r="2.6" fill="#2a9d55"/>
<circle cx="599.416" cy="216.020" r="2.6" fill="#2a9d55"/>
<circle cx="606.412" cy="209.638" r="2.6" fill="#2a9d55"/>
<circle cx="613.407" cy="206.696" r="2.6" fill="#2a9d55"/>
<circle cx="620.403" cy="204.460" r="2.6" fill="#2a9d55"/>
<circle cx="627.399" cy="202.899" r="2.6" fill="#2a9d55"/>
<circle cx="634.395" cy="206.684" r="2.6" fill="#2a9d55"/>
<circle cx="641.391" cy="198.165" r="2.6" fill="#2a9d55"/>
<circle cx="648.387" cy="201.468" r="2.6" fill="#2a9d55"/>
<circle cx="655.383" cy="198.888" r="2.6" fill="#2a9d55"/>
<circle cx="662.379" cy="193.111" r="2.6" fill="#2a9d55"/>
<circle cx="669.374" cy="184.968" r="2.6" fill="#2a9d55"/>
<circle cx="676.370" cy="185.273" r="2.6" fill="#2a9d55"/>
<circle cx="683.366" cy="186.504" r="2.6" fill="#2a9d55"/>
<circle cx="690.362" cy="183.313" r="2.6" fill="#2a9d55"/>
<circle cx="697.358" cy="180.705" r="2.6" fill="#2a9d55"/>
<circle cx="704.354" cy="173.628" r="2.6" fill="#2a9d55"/>
<circle cx="711.350" cy="173.696" r="2.6" fill="#2a9d55"/>
<circle cx="718.346" cy="167.712" r="2.6" fill="#2a9d55"/>
<circle cx="725.342" cy="166.064" r="2.6" fill="#2a9d55"/>
<circle cx="732.337" cy="171.232" r="2.6" fill="#2a9d55"/>
<circle cx="739.333" cy="160.048" r="2.6" fill="#2a9d55"/>
<circle cx="746.329" cy="165.798" r="2.6" fill="#2a9d55"/>
<circle cx="753.325" cy="164.137" r="2.6" fill="#2a9d55"/>
<circle cx="760.321" cy="158.742" r="2.6" fill="#2a9d55"/>
<circle cx="767.317" cy="147.778" r="2.6" fill="#2a9d55"/>
<circle cx="774.313" cy="145.775" r="2.6" fill="#2a9d55"/>
<circle cx="781.309" cy="151.390" r="2.6" fill="#2a9d55"/>
<circle cx="788.305" cy="144.177" r="2.6" fill="#2a9d55"/>
<circle cx="795.300" cy="145.796" r="2.6" fill="#2a9d55"/>
<circle cx="802.296" cy="143.700" r="2.6" fill="#2a9d55"/>
<line x1="645" y1="62" x2="673" y2="62" stroke="#1f4e79" stroke-width="2.5"/>
<text x="681" y="66" font-family="Arial" font-size="12">exact integral</text>
<line x1="645" y1="80" x2="673" y2="80" stroke="#c43c39" stroke-width="2.5"/>
<text x="681" y="84" font-family="Arial" font-size="12">small detector</text>
<line x1="645" y1="98" x2="673" y2="98" stroke="#2a9d55" stroke-width="2.5"/>
<text x="681" y="102" font-family="Arial" font-size="12">random detector</text>
</svg>
