<svg xmlns="http://www.w3.org/2000/svg" width="860" height="560" viewBox="0 0 860 560">
<rect width="100%" height="100%" fill="white"/>
<text x="430" y="28" text-anchor="middle" font-family="Arial" font-size="18" font-weight="700">Fig. 3.6: amplitudes for delta1=0.035</text>
<line x1="82" y1="488" x2="830" y2="488" stroke="#222" stroke-width="1.5"/>
<line x1="82" y1="48" x2="82" y2="488" stroke="#222" stroke-width="1.5"/>
<line x1="82.000" y1="488" x2="82.000" y2="494" stroke="#222"/>
<text x="82.000" y="512" text-anchor="middle" font-family="Arial" font-size="12">-0.0296</text>
<line x1="76" y1="488.000" x2="82" y2="488.000" stroke="#222"/>
<line x1="82" y1="488.000" x2="830" y2="488.000" stroke="#e8e8e8"/>
<text x="72" y="492.000" text-anchor="end" font-family="Arial" font-size="12">-0.0810</text>
<line x1="231.600" y1="488" x2="231.600" y2="494" stroke="#222"/>
<text x="231.600" y="512" text-anchor="middle" font-family="Arial" font-size="12">0.0222</text>
<line x1="76" y1="400.000" x2="82" y2="400.000" stroke="#222"/>
<line x1="82" y1="400.000" x2="830" y2="400.000" stroke="#e8e8e8"/>
<text x="72" y="404.000" text-anchor="end" font-family="Arial" font-size="12">0.1538</text>
<line x1="381.200" y1="488" x2="381.200" y2="494" stroke="#222"/>
<text x="381.200" y="512" text-anchor="middle" font-family="Arial" font-size="12">0.0741</text>
<line x1="76" y1="312.000" x2="82" y2="312.000" stroke="#222"/>
<line x1="82" y1="312.000" x2="830" y2="312.000" stroke="#e8e8e8"/>
<text x="72" y="316.000" text-anchor="end" font-family="Arial" font-size="12">0.3886</text>
<line x1="530.800" y1="488" x2="530.800" y2="494" stroke="#222"/>
<text x="530.800" y="512" text-anchor="middle" font-family="Arial" font-size="12">0.1259</text>
<line x1="76" y1="224.000" x2="82" y2="224.000" stroke="#222"/>
<line x1="82" y1="224.000" x2="830" y2="224.000" stroke="#e8e8e8"/>
<text x="72" y="228.000" text-anchor="end" font-family="Arial" font-size="12">0.6234</text>
<line x1="680.400" y1="488" x2="680.400" y2="494" stroke="#222"/>
<text x="680.400" y="512" text-anchor="middle" font-family="Arial" font-size="12">0.1778</text>
<line x1="76" y1="136.000" x2="82" y2="136.000" stroke="#222"/>
<line x1="82" y1="136.000" x2="830" y2="136.000" stroke="#e8e8e8"/>
<text x="72" y="140.000" text-anchor="end" font-family="Arial" font-size="12">0.8582</text>
<line x1="830.000" y1="488" x2="830.000" y2="494" stroke="#222"/>
<text x="830.000" y="512" text-anchor="middle" font-family="Arial" font-size="12">0.2296</text>
<line x1="76" y1="48.000" x2="82" y2="48.000" stroke="#222"/>
<line x1="82" y1="48.000" x2="830" y2="48.000" stroke="#e8e8e8"/>
<text x="72" y="52.000" text-anchor="end" font-family="Arial" font-size="12">1.0930</text>
<text x="430" y="542" text-anchor="middle" font-family="Arial" font-size="15">t_n</text>
<text transform="translate(24 280) rotate(-90)" text-anchor="middle" font-family="Arial" font-size="15">a_n</text>
<polyline fill="none" stroke="#c43c39" stroke-width="2.2" points="109.704,457.456 116.700,457.418 123.695,457.357 130.691,457.277 137.687,457.177 144.683,457.054 151.679,456.905 158.675,456.728 165.671,456.517 172.667,456.269 179.663,455.975 186.658,455.631 193.654,455.228 200.650,454.759 207.646,454.214 214.642,453.585 221.638,452.862 228.634,452.036 235.630,451.098 242.626,450.038 249.621,448.848 256.617,447.520 263.613,446.046 270.609,444.420 277.605,442.637 284.601,440.693 291.597,438.584 298.593,436.310 305.588,433.871 312.584,431.270 319.580,428.510 326.576,425.598 333.572,422.541 340.568,419.348 347.564,416.029 354.560,412.595 361.556,409.059 368.551,405.431 375.547,401.726 382.543,397.953 389.539,394.127 396.535,390.256 403.531,386.353 410.527,382.426 417.523,378.484 424.519,374.533 431.514,370.580 438.510,366.629 445.506,362.682 452.502,358.740 459.498,354.802 466.494,350.864 473.490,346.919 480.486,342.957 487.481,338.965 494.477,334.924 501.473,330.808 508.469,326.585 515.465,322.208 522.461,317.618 529.457,312.734 536.453,307.442 543.449,301.582 550.444,294.920 557.440,287.101 564.436,277.561 571.432,265.342 578.428,248.663 585.424,223.739 592.420,180.585 599.416,78.345 606.412,457.655 613.407,457.655 620.403,457.655 627.399,457.655 634.395,457.655 641.391,457.655 648.387,457.655 655.383,457.655 662.379,457.655 669.374,457.655 676.370,457.655 683.366,457.655 690.362,457.655 697.358,457.655 704.354,457.655 711.350,457.655 718.346,457.655 725.342,457.655 732.337,457.655 739.333,457.655 746.329,457.655 753.325,457.655 760.321,457.655 767.317,457.655 774.313,457.655 781.309,457.655 788.305,457.655 795.300,457.655 802.296,457.655 "/>
<polyline fill="none" stroke="#2a9d55" stroke-width="2.2" points="109.704,457.456 116.700,457.420 123.695,457.361 130.691,457.282 137.687,457.185 144.683,457.066 151.679,456.915 158.675,456.748 165.671,456.534 172.667,456.289 179.663,456.009 186.658,455.671 193.654,455.273 200.650,454.808 207.646,454.273 214.642,453.666 221.638,452.961 228.634,452.117 235.630,451.198 242.626,450.210 249.621,449.053 256.617,447.683 263.613,446.322 270.609,444.666 277.605,443.002 284.601,441.032 291.597,438.930 298.593,436.822 305.588,434.302 312.584,431.903 319.580,429.127 326.576,426.281 333.572,423.263 340.568,420.309 347.564,417.086 354.560,413.718 361.556,410.263 368.551,406.661 375.547,403.217 382.543,399.321 389.539,395.663 396.535,392.381 403.531,388.397 410.527,384.701 417.523,380.689 424.519,377.386 431.514,373.243 438.510,370.068 445.506,366.124 452.502,362.489 459.498,359.034 466.494,355.962 473.490,352.275 480.486,348.494 487.481,345.929 494.477,342.447 501.473,339.338 508.469,336.581 515.465,333.728 522.461,331.274 529.457,328.256 536.453,326.192 543.449,323.781 550.444,321.450 557.440,319.371 564.436,317.847 571.432,316.742 578.428,315.376 585.424,315.209 592.420,315.059 599.416,314.675 606.412,315.465 613.407,317.146 620.403,318.529 627.399,321.477 634.395,325.385 641.391,330.045 648.387,335.094 655.383,340.783 662.379,346.823 669.374,354.388 676.370,361.212 683.366,368.842 690.362,377.453 697.358,385.282 704.354,392.689 711.350,400.788 718.346,407.552 725.342,413.708 732.337,418.498 739.333,423.552 746.329,427.963 753.325,432.982 760.321,436.323 767.317,439.313 774.313,441.757 781.309,444.525 788.305,446.547 795.300,448.229 802.296,449.679 "/>
<line x1="645" y1="62" x2="673" y2="62" stroke="#c43c39" stroke-width="2.5"/>
<text x="681" y="66" font-family="Arial" font-size="12">small detector</text>
<line x1="645" y1="80" x2="673" y2="80" stroke="#2a9d55" stroke-width="2.5"/>
<text x="681" y="84" font-family="Arial" font-size="12">random detector</text>
</svg>
