<svg xmlns="http://www.w3.org/2000/svg" width="860" height="560" viewBox="0 0 860 560">
<rect width="100%" height="100%" fill="white"/>
<text x="430" y="28" text-anchor="middle" font-family="Arial" font-size="18" font-weight="700">Fig. 3.2: difference from exact a1</text>
<line x1="82" y1="488" x2="830" y2="488" stroke="#222" stroke-width="1.5"/>
<line x1="82" y1="48" x2="82" y2="488" stroke="#222" stroke-width="1.5"/>
<line x1="82.000" y1="488" x2="82.000" y2="494" stroke="#222"/>
<text x="82.000" y="512" text-anchor="middle" font-family="Arial" font-size="12">-0.0198</text>
<line x1="76" y1="488.000" x2="82" y2="488.000" stroke="#222"/>
<line x1="82" y1="488.000" x2="830" y2="488.000" stroke="#e8e8e8"/>
<text x="72" y="492.000" text-anchor="end" font-family="Arial" font-size="12">-0.0001</text>
<line x1="231.600" y1="488" x2="231.600" y2="494" stroke="#222"/>
<text x="231.600" y="512" text-anchor="middle" font-family="Arial" font-size="12">0.0872</text>
<line x1="76" y1="400.000" x2="82" y2="400.000" stroke="#222"/>
<line x1="82" y1="400.000" x2="830" y2="400.000" stroke="#e8e8e8"/>
<text x="72" y="404.000" text-anchor="end" font-family="Arial" font-size="12">0.0001</text>
<line x1="381.200" y1="488" x2="381.200" y2="494" stroke="#222"/>
<text x="381.200" y="512" text-anchor="middle" font-family="Arial" font-size="12">0.1941</text>
<line x1="76" y1="312.000" x2="82" y2="312.000" stroke="#222"/>
<line x1="82" y1="312.000" x2="830" y2="312.000" stroke="#e8e8e8"/>
<text x="72" y="316.000" text-anchor="end" font-family="Arial" font-size="12">0.0003</text>
<line x1="530.800" y1="488" x2="530.800" y2="494" stroke="#222"/>
<text x="530.800" y="512" text-anchor="middle" font-family="Arial" font-size="12">0.3010</text>
<line x1="76" y1="224.000" x2="82" y2="224.000" stroke="#222"/>
<line x1="82" y1="224.000" x2="830" y2="224.000" stroke="#e8e8e8"/>
<text x="72" y="228.000" text-anchor="end" font-family="Arial" font-size="12">0.0006</text>
<line x1="680.400" y1="488" x2="680.400" y2="494" stroke="#222"/>
<text x="680.400" y="512" text-anchor="middle" font-family="Arial" font-size="12">0.4079</text>
<line x1="76" y1="136.000" x2="82" y2="136.000" stroke="#222"/>
<line x1="82" y1="136.000" x2="830" y2="136.000" stroke="#e8e8e8"/>
<text x="72" y="140.000" text-anchor="end" font-family="Arial" font-size="12">0.0008</text>
<line x1="830.000" y1="488" x2="830.000" y2="494" stroke="#222"/>
<text x="830.000" y="512" text-anchor="middle" font-family="Arial" font-size="12">0.5149</text>
<line x1="76" y1="48.000" x2="82" y2="48.000" stroke="#222"/>
<line x1="82" y1="48.000" x2="830" y2="48.000" stroke="#e8e8e8"/>
<text x="72" y="52.000" text-anchor="end" font-family="Arial" font-size="12">0.0010</text>
<text x="430" y="542" text-anchor="middle" font-family="Arial" font-size="15">delta1</text>
<text transform="translate(24 280) rotate(-90)" text-anchor="middle" font-family="Arial" font-size="15">absolute difference</text>
<polyline fill="none" stroke="#c43c39" stroke-width="2.2" points="109.704,457.655 116.700,457.651 123.695,457.633 130.691,457.595 137.687,457.531 144.683,457.439 151.679,457.314 158.675,457.154 165.671,456.955 172.667,456.716 179.663,456.433 186.658,456.104 193.654,455.728 200.650,455.301 207.646,454.823 214.642,454.290 221.638,453.701 228.634,453.054 235.630,452.348 242.626,451.581 249.621,450.750 256.617,449.855 263.613,448.893 270.609,447.864 277.605,446.766 284.601,445.596 291.597,444.355 298.593,443.039 305.588,441.649 312.584,440.182 319.580,438.637 326.576,437.013 333.572,435.309 340.568,433.523 347.564,431.654 354.560,429.700 361.556,427.661 368.551,425.535 375.547,423.322 382.543,421.019 389.539,418.625 396.535,416.140 403.531,413.563 410.527,410.891 417.523,408.125 424.519,405.262 431.514,402.303 438.510,399.245 445.506,396.087 452.502,392.829 459.498,389.469 466.494,386.007 473.490,382.440 480.486,378.769 487.481,374.992 494.477,371.108 501.473,367.116 508.469,363.015 515.465,358.804 522.461,354.481 529.457,350.046 536.453,345.498 543.449,340.836 550.444,336.058 557.440,331.164 564.436,326.152 571.432,321.022 578.428,315.772 585.424,310.402 592.420,304.910 599.416,299.296 606.412,293.558 613.407,287.695 620.403,281.706 627.399,275.590 634.395,269.347 641.391,262.975 648.387,256.472 655.383,249.839 662.379,243.073 669.374,236.175 676.370,229.142 683.366,221.974 690.362,214.669 697.358,207.227 704.354,199.646 711.350,191.926 718.346,184.065 725.342,176.062 732.337,167.916 739.333,159.626 746.329,151.191 753.325,142.609 760.321,133.880 767.317,125.002 774.313,115.975 781.309,106.797 788.305,97.466 795.300,87.983 802.296,78.345 "/>
<polyline fill="none" stroke="#2a9d55" stroke-width="2.2" points="109.704,457.655 116.700,457.639 123.695,457.587 130.691,457.505 137.687,457.562 144.683,457.346 151.679,457.370 158.675,457.137 165.671,457.510 172.667,457.409 179.663,457.427 186.658,456.308 193.654,456.415 200.650,457.459 207.646,456.631 214.642,454.506 221.638,454.936 228.634,456.805 235.630,455.204 242.626,456.937 249.621,452.515 256.617,452.204 263.613,453.957 270.609,452.260 277.605,451.873 284.601,451.520 291.597,448.896 298.593,449.288 305.588,452.888 312.584,447.736 319.580,447.357 326.576,449.632 333.572,448.587 340.568,443.989 347.564,445.592 354.560,441.550 361.556,436.682 368.551,437.145 375.547,442.415 382.543,441.618 389.539,441.917 396.535,441.903 403.531,440.133 410.527,435.414 417.523,433.795 424.519,435.416 431.514,428.206 438.510,424.955 445.506,428.479 452.502,421.145 459.498,423.573 466.494,426.561 473.490,414.921 480.486,415.369 487.481,425.637 494.477,411.609 501.473,400.369 508.469,406.854 515.465,407.965 522.461,411.709 529.457,393.695 536.453,399.845 543.449,403.839 550.444,394.604 557.440,394.690 564.436,402.593 571.432,374.852 578.428,380.995 585.424,383.341 592.420,376.843 599.416,373.087 606.412,382.679 613.407,381.212 620.403,377.405 627.399,371.353 634.395,348.162 641.391,364.101 648.387,342.254 655.383,339.060 662.379,345.956 669.374,360.295 676.370,347.592 683.366,331.834 690.362,330.064 697.358,326.328 704.354,336.726 711.350,324.231 718.346,330.919 725.342,323.665 732.337,294.568 739.333,317.478 746.329,286.284 753.325,278.596 760.321,282.686 767.317,304.403 774.313,297.429 781.309,266.040 788.305,275.415 795.300,256.504 802.296,249.305 "/>
<circle cx="109.704" cy="457.655" r="2.6" fill="#2a9d55"/>
<circle cx="116.700" cy="457.639" r="2.6" fill="#2a9d55"/>
<circle cx="123.695" cy="457.587" r="2.6" fill="#2a9d55"/>
<circle cx="130.691" cy="457.505" r="2.6" fill="#2a9d55"/>
<circle cx="137.687" cy="457.562" r="2.6" fill="#2a9d55"/>
<circle cx="144.683" cy="457.346" r="2.6" fill="#2a9d55"/>
<circle cx="151.679" cy="457.370" r="2.6" fill="#2a9d55"/>
<circle cx="158.675" cy="457.137" r="2.6" fill="#2a9d55"/>
<circle cx="165.671" cy="457.510" r="2.6" fill="#2a9d55"/>
<circle cx="172.667" cy="457.409" r="2.6" fill="#2a9d55"/>
<circle cx="179.663" cy="457.427" r="2.6" fill="#2a9d55"/>
<circle cx="186.658" cy="456.308" r="2.6" fill="#2a9d55"/>
<circle cx="193.654" cy="456.415" r="2.6" fill="#2a9d55"/>
<circle cx="200.650" cy="457.459" r="2.6" fill="#2a9d55"/>
<circle cx="207.646" cy="456.631" r="2.6" fill="#2a9d55"/>
<circle cx="214.642" cy="454.506" r="2.6" fill="#2a9d55"/>
<circle cx="221.638" cy="454.936" r="2.6" fill="#2a9d55"/>
<circle cx="228.634" cy="456.805" r="2.6" fill="#2a9d55"/>
<circle cx="235.630" cy="455.204" r="2.6" fill="#2a9d55"/>
<circle cx="242.626" cy="456.937" r="2.6" fill="#2a9d55"/>
<circle cx="249.621" cy="452.515" r="2.6" fill="#2a9d55"/>
<circle cx="256.617" cy="452.204" r="2.6" fill="#2a9d55"/>
<circle cx="263.613" cy="453.957" r="2.6" fill="#2a9d55"/>
<circle cx="270.609" cy="452.260" r="2.6" fill="#2a9d55"/>
<circle cx="277.605" cy="451.873" r="2.6" fill="#2a9d55"/>
<circle cx="284.601" cy="451.520" r="2.6" fill="#2a9d55"/>
<circle cx="291.597" cy="448.896" r="2.6" fill="#2a9d55"/>
<circle cx="298.593" cy="449.288" r="2.6" fill="#2a9d55"/>
<circle cx="305.588" cy="452.888" r="2.6" fill="#2a9d55"/>
<circle cx="312.584" cy="447.736" r="2.6" fill="#2a9d55"/>
<circle cx="319.580" cy="447.357" r="2.6" fill="#2a9d55"/>
<circle cx="326.576" cy="449.632" r="2.6" fill="#2a9d55"/>
<circle cx="333.572" cy="448.587" r="2.6" fill="#2a9d55"/>
<circle cx="340.568" cy="443.989" r="2.6" fill="#2a9d55"/>
<circle cx="347.564" cy="445.592" r="2.6" fill="#2a9d55"/>
<circle cx="354.560" cy="441.550" r="2.6" fill="#2a9d55"/>
<circle cx="361.556" cy="436.682" r="2.6" fill="#2a9d55"/>
<circle cx="368.551" cy="437.145" r="2.6" fill="#2a9d55"/>
<circle cx="375.547" cy="442.415" r="2.6" fill="#2a9d55"/>
<circle cx="382.543" cy="441.618" r="2.6" fill="#2a9d55"/>
<circle cx="389.539" cy="441.917" r="2.6" fill="#2a9d55"/>
<circle cx="396.535" cy="441.903" r="2.6" fill="#2a9d55"/>
<circle cx="403.531" cy="440.133" r="2.6" fill="#2a9d55"/>
<circle cx="410.527" cy="435.414" r="2.6" fill="#2a9d55"/>
<circle cx="417.523" cy="433.795" r="2.6" fill="#2a9d55"/>
<circle cx="424.519" cy="435.416" r="2.6" fill="#2a9d55"/>
<circle cx="431.514" cy="428.206" r="2.6" fill="#2a9d55"/>
<circle cx="438.510" cy="424.955" r="2.6" fill="#2a9d55"/>
<circle cx="445.506" cy="428.479" r="2.6" fill="#2a9d55"/>
<circle cx="452.502" cy="421.145" r="2.6" fill="#2a9d55"/>
<circle cx="459.498" cy="423.573" r="2.6" fill="#2a9d55"/>
<circle cx="466.494" cy="426.561" r="2.6" fill="#2a9d55"/>
<circle cx="473.490" cy="414.921" r="2.6" fill="#2a9d55"/>
<circle cx="480.486" cy="415.369" r="2.6" fill="#2a9d55"/>
<circle cx="487.481" cy="425.637" r="2.6" fill="#2a9d55"/>
<circle cx="494.477" cy="411.609" r="2.6" fill="#2a9d55"/>
<circle cx="501.473" cy="400.369" r="2.6" fill="#2a9d55"/>
<circle cx="508.469" cy="406.854" r="2.6" fill="#2a9d55"/>
<circle cx="515.465" cy="407.965" r="2.6" fill="#2a9d55"/>
<circle cx="522.461" cy="411.709" r="2.6" fill="#2a9d55"/>
<circle cx="529.457" cy="393.695" r="2.6" fill="#2a9d55"/>
<circle cx="536.453" cy="399.845" r="2.6" fill="#2a9d55"/>
<circle cx="543.449" cy="403.839" r="2.6" fill="#2a9d55"/>
<circle cx="550.444" cy="394.604" r="2.6" fill="#2a9d55"/>
<circle cx="557.440" cy="394.690" r="2.6" fill="#2a9d55"/>
<circle cx="564.436" cy="402.593" r="2.6" fill="#2a9d55"/>
<circle cx="571.432" cy="374.852" r="2.6" fill="#2a9d55"/>
<circle cx="578.428" cy="380.995" r="2.6" fill="#2a9d55"/>
<circle cx="585.424" cy="383.341" r="2.6" fill="#2a9d55"/>
<circle cx="592.420" cy="376.843" r="2.6" fill="#2a9d55"/>
<circle cx="599.416" cy="373.087" r="2.6" fill="#2a9d55"/>
<circle cx="606.412" cy="382.679" r="2.6" fill="#2a9d55"/>
<circle cx="613.407" cy="381.212" r="2.6" fill="#2a9d55"/>
<circle cx="620.403" cy="377.405" r="2.6" fill="#2a9d55"/>
<circle cx="627.399" cy="371.353" r="2.6" fill="#2a9d55"/>
<circle cx="634.395" cy="348.162" r="2.6" fill="#2a9d55"/>
<circle cx="641.391" cy="364.101" r="2.6" fill="#2a9d55"/>
<circle cx="648.387" cy="342.254" r="2.6" fill="#2a9d55"/>
<circle cx="655.383" cy="339.060" r="2.6" fill="#2a9d55"/>
<circle cx="662.379" cy="345.956" r="2.6" fill="#2a9d55"/>
<circle cx="669.374" cy="360.295" r="2.6" fill="#2a9d55"/>
<circle cx="676.370" cy="347.592" r="2.6" fill="#2a9d55"/>
<circle cx="683.366" cy="331.834" r="2.6" fill="#2a9d55"/>
<circle cx="690.362" cy="330.064" r="2.6" fill="#2a9d55"/>
<circle cx="697.358" cy="326.328" r="2.6" fill="#2a9d55"/>
<circle cx="704.354" cy="336.726" r="2.6" fill="#2a9d55"/>
<circle cx="711.350" cy="324.231" r="2.6" fill="#2a9d55"/>
<circle cx="718.346" cy="330.919" r="2.6" fill="#2a9d55"/>
<circle cx="725.342" cy="323.665" r="2.6" fill="#2a9d55"/>
<circle cx="732.337" cy="294.568" r="2.6" fill="#2a9d55"/>
<circle cx="739.333" cy="317.478" r="2.6" fill="#2a9d55"/>
<circle cx="746.329" cy="286.284" r="2.6" fill="#2a9d55"/>
<circle cx="753.325" cy="278.596" r="2.6" fill="#2a9d55"/>
<circle cx="760.321" cy="282.686" r="2.6" fill="#2a9d55"/>
<circle cx="767.317" cy="304.403" r="2.6" fill="#2a9d55"/>
<circle cx="774.313" cy="297.429" r="2.6" fill="#2a9d55"/>
<circle cx="781.309" cy="266.040" r="2.6" fill="#2a9d55"/>
<circle cx="788.305" cy="275.415" r="2.6" fill="#2a9d55"/>
<circle cx="795.300" cy="256.504" r="2.6" fill="#2a9d55"/>
<circle cx="802.296" cy="249.305" r="2.6" fill="#2a9d55"/>
<line x1="645" y1="62" x2="673" y2="62" stroke="#c43c39" stroke-width="2.5"/>
<text x="681" y="66" font-family="Arial" font-size="12">|exact-small|</text>
<line x1="645" y1="80" x2="673" y2="80" stroke="#2a9d55" stroke-width="2.5"/>
<text x="681" y="84" font-family="Arial" font-size="12">|exact-random|</text>
</svg>
