<svg xmlns="http://www.w3.org/2000/svg" width="860" height="560" viewBox="0 0 860 560">
<rect width="100%" height="100%" fill="white"/>
<text x="430" y="28" text-anchor="middle" font-family="Arial" font-size="18" font-weight="700">Fig. 3.3: a2 by detector width</text>
<line x1="82" y1="488" x2="830" y2="488" stroke="#222" stroke-width="1.5"/>
<line x1="82" y1="48" x2="82" y2="488" stroke="#222" stroke-width="1.5"/>
<line x1="82.000" y1="488" x2="82.000" y2="494" stroke="#222"/>
<text x="82.000" y="512" text-anchor="middle" font-family="Arial" font-size="12">-0.0196</text>
<line x1="76" y1="488.000" x2="82" y2="488.000" stroke="#222"/>
<line x1="82" y1="488.000" x2="830" y2="488.000" stroke="#e8e8e8"/>
<text x="72" y="492.000" text-anchor="end" font-family="Arial" font-size="12">-0.0006</text>
<line x1="231.600" y1="488" x2="231.600" y2="494" stroke="#222"/>
<text x="231.600" y="512" text-anchor="middle" font-family="Arial" font-size="12">0.0863</text>
<line x1="76" y1="400.000" x2="82" y2="400.000" stroke="#222"/>
<line x1="82" y1="400.000" x2="830" y2="400.000" stroke="#e8e8e8"/>
<text x="72" y="404.000" text-anchor="end" font-family="Arial" font-size="12">0.0012</text>
<line x1="381.200" y1="488" x2="381.200" y2="494" stroke="#222"/>
<text x="381.200" y="512" text-anchor="middle" font-family="Arial" font-size="12">0.1921</text>
<line x1="76" y1="312.000" x2="82" y2="312.000" stroke="#222"/>
<line x1="82" y1="312.000" x2="830" y2="312.000" stroke="#e8e8e8"/>
<text x="72" y="316.000" text-anchor="end" font-family="Arial" font-size="12">0.0029</text>
<line x1="530.800" y1="488" x2="530.800" y2="494" stroke="#222"/>
<text x="530.800" y="512" text-anchor="middle" font-family="Arial" font-size="12">0.2980</text>
<line x1="76" y1="224.000" x2="82" y2="224.000" stroke="#222"/>
<line x1="82" y1="224.000" x2="830" y2="224.000" stroke="#e8e8e8"/>
<text x="72" y="228.000" text-anchor="end" font-family="Arial" font-size="12">0.0046</text>
<line x1="680.400" y1="488" x2="680.400" y2="494" stroke="#222"/>
<text x="680.400" y="512" text-anchor="middle" font-family="Arial" font-size="12">0.4038</text>
<line x1="76" y1="136.000" x2="82" y2="136.000" stroke="#222"/>
<line x1="82" y1="136.000" x2="830" y2="136.000" stroke="#e8e8e8"/>
<text x="72" y="140.000" text-anchor="end" font-family="Arial" font-size="12">0.0063</text>
<line x1="830.000" y1="488" x2="830.000" y2="494" stroke="#222"/>
<text x="830.000" y="512" text-anchor="middle" font-family="Arial" font-size="12">0.5097</text>
<line x1="76" y1="48.000" x2="82" y2="48.000" stroke="#222"/>
<line x1="82" y1="48.000" x2="830" y2="48.000" stroke="#e8e8e8"/>
<text x="72" y="52.000" text-anchor="end" font-family="Arial" font-size="12">0.0081</text>
<text x="430" y="542" text-anchor="middle" font-family="Arial" font-size="15">delta1</text>
<text transform="translate(24 280) rotate(-90)" text-anchor="middle" font-family="Arial" font-size="15">a2</text>
<polyline fill="none" stroke="#1f4e79" stroke-width="2.2" points="109.704,457.655 123.838,441.799 137.973,436.240 152.107,432.912 166.242,430.768 180.376,429.295 194.511,428.125 208.646,426.965 222.780,425.597 236.915,423.922 251.049,421.984 265.184,419.960 279.318,418.091 293.453,416.595 307.587,415.569 321.722,414.925 335.856,414.394 349.991,413.652 364.125,412.517 378.260,411.083 392.395,409.643 406.529,408.433 420.664,407.419 434.798,406.340 448.933,405.002 463.067,403.523 477.202,402.200 491.336,401.106 505.471,399.963 519.605,398.507 533.740,396.892 547.875,395.466 562.009,394.221 576.144,392.824 590.278,391.196 604.413,389.622 618.547,388.169 632.682,386.597 646.816,384.907 660.951,383.306 675.085,381.682 689.220,379.890 703.354,378.144 717.489,376.466 731.624,374.602 745.758,372.700 759.893,370.914 774.027,368.982 788.162,366.967 802.296,365.045 "/>
<polyline fill="none" stroke="#c43c39" stroke-width="2.2" points="109.704,457.655 123.838,441.044 137.973,434.056 152.107,428.829 166.242,424.429 180.376,420.464 194.511,416.712 208.646,413.031 222.780,409.321 236.915,405.512 251.049,401.550 265.184,397.398 279.318,393.030 293.453,388.426 307.587,383.575 321.722,378.471 335.856,373.110 349.991,367.492 364.125,361.619 378.260,355.495 392.395,349.124 406.529,342.511 420.664,335.661 434.798,328.580 448.933,321.274 463.067,313.748 477.202,306.008 491.336,298.058 505.471,289.904 519.605,281.551 533.740,273.003 547.875,264.264 562.009,255.340 576.144,246.233 590.278,236.948 604.413,227.488 618.547,217.857 632.682,208.058 646.816,198.093 660.951,187.967 675.085,177.681 689.220,167.239 703.354,156.642 717.489,145.894 731.624,134.997 745.758,123.952 759.893,112.763 774.027,101.431 788.162,89.957 802.296,78.345 "/>
<polyline fill="none" stroke="#2a9d55" stroke-width="2.2" points="109.704,456.468 123.838,423.772 137.973,409.199 152.107,397.747 166.242,388.081 180.376,379.454 194.511,371.522 208.646,364.524 222.780,357.966 236.915,351.646 251.049,344.857 265.184,339.428 279.318,333.917 293.453,329.135 307.587,322.936 321.722,317.161 335.856,314.130 349.991,309.817 364.125,304.827 378.260,302.595 392.395,297.471 406.529,292.491 420.664,288.144 434.798,285.447 448.933,278.519 463.067,278.225 477.202,273.597 491.336,269.220 505.471,262.717 519.605,259.019 533.740,256.323 547.875,249.363 562.009,245.533 576.144,236.770 590.278,236.870 604.413,231.789 618.547,225.979 632.682,225.717 646.816,219.398 660.951,216.343 675.085,214.691 689.220,209.224 703.354,203.650 717.489,201.613 731.624,191.456 745.758,181.970 759.893,187.809 774.027,189.837 788.162,177.752 802.296,174.031 "/>
<circle cx="109.704" cy="456.468" r="2.6" fill="#2a9d55"/>
<circle cx="123.838" cy="423.772" r="2.6" fill="#2a9d55"/>
<circle cx="137.973" cy="409.199" r="2.6" fill="#2a9d55"/>
<circle cx="152.107" cy="397.747" r="2.6" fill="#2a9d55"/>
<circle cx="166.242" cy="388.081" r="2.6" fill="#2a9d55"/>
<circle cx="180.376" cy="379.454" r="2.6" fill="#2a9d55"/>
<circle cx="194.511" cy="371.522" r="2.6" fill="#2a9d55"/>
<circle cx="208.646" cy="364.524" r="2.6" fill="#2a9d55"/>
<circle cx="222.780" cy="357.966" r="2.6" fill="#2a9d55"/>
<circle cx="236.915" cy="351.646" r="2.6" fill="#2a9d55"/>
<circle cx="251.049" cy="344.857" r="2.6" fill="#2a9d55"/>
<circle cx="265.184" cy="339.428" r="2.6" fill="#2a9d55"/>
<circle cx="279.318" cy="333.917" r="2.6" fill="#2a9d55"/>
<circle cx="293.453" cy="329.135" r="2.6" fill="#2a9d55"/>
<circle cx="307.587" cy="322.936" r="2.6" fill="#2a9d55"/>
<circle cx="321.722" cy="317.161" r="2.6" fill="#2a9d55"/>
<circle cx="335.856" cy="314.130" r="2.6" fill="#2a9d55"/>
<circle cx="349.991" cy="309.817" r="2.6" fill="#2a9d55"/>
<circle cx="364.125" cy="304.827" r="2.6" fill="#2a9d55"/>
<circle cx="378.260" cy="302.595" r="2.6" fill="#2a9d55"/>
<circle cx="392.395" cy="297.471" r="2.6" fill="#2a9d55"/>
<circle cx="406.529" cy="292.491" r="2.6" fill="#2a9d55"/>
<circle cx="420.664" cy="288.144" r="2.6" fill="#2a9d55"/>
<circle cx="434.798" cy="285.447" r="2.6" fill="#2a9d55"/>
<circle cx="448.933" cy="278.519" r="2.6" fill="#2a9d55"/>
<circle cx="463.067" cy="278.225" r="2.6" fill="#2a9d55"/>
<circle cx="477.202" cy="273.597" r="2.6" fill="#2a9d55"/>
<circle cx="491.336" cy="269.220" r="2.6" fill="#2a9d55"/>
<circle cx="505.471" cy="262.717" r="2.6" fill="#2a9d55"/>
<circle cx="519.605" cy="259.019" r="2.6" fill="#2a9d55"/>
<circle cx="533.740" cy="256.323" r="2.6" fill="#2a9d55"/>
<circle cx="547.875" cy="249.363" r="2.6" fill="#2a9d55"/>
<circle cx="562.009" cy="245.533" r="2.6" fill="#2a9d55"/>
<circle cx="576.144" cy="236.770" r="2.6" fill="#2a9d55"/>
<circle cx="590.278" cy="236.870" r="2.6" fill="#2a9d55"/>
<circle cx="604.413" cy="231.789" r="2.6" fill="#2a9d55"/>
<circle cx="618.547" cy="225.979" r="2.6" fill="#2a9d55"/>
<circle cx="632.682" cy="225.717" r="2.6" fill="#2a9d55"/>
<circle cx="646.816" cy="219.398" r="2.6" fill="#2a9d55"/>
<circle cx="660.951" cy="216.343" r="2.6" fill="#2a9d55"/>
<circle cx="675.085" cy="214.691" r="2.6" fill="#2a9d55"/>
<circle cx="689.220" cy="209.224" r="2.6" fill="#2a9d55"/>
<circle cx="703.354" cy="203.650" r="2.6" fill="#2a9d55"/>
<circle cx="717.489" cy="201.613" r="2.6" fill="#2a9d55"/>
<circle cx="731.624" cy="191.456" r="2.6" fill="#2a9d55"/>
<circle cx="745.758" cy="181.970" r="2.6" fill="#2a9d55"/>
<circle cx="759.893" cy="187.809" r="2.6" fill="#2a9d55"/>
<circle cx="774.027" cy="189.837" r="2.6" fill="#2a9d55"/>
<circle cx="788.162" cy="177.752" r="2.6" fill="#2a9d55"/>
<circle cx="802.296" cy="174.031" r="2.6" fill="#2a9d55"/>
<line x1="645" y1="62" x2="673" y2="62" stroke="#1f4e79" stroke-width="2.5"/>
<text x="681" y="66" font-family="Arial" font-size="12">numeric integral</text>
<line x1="645" y1="80" x2="673" y2="80" stroke="#c43c39" stroke-width="2.5"/>
<text x="681" y="84" font-family="Arial" font-size="12">small detector</text>
<line x1="645" y1="98" x2="673" y2="98" stroke="#2a9d55" stroke-width="2.5"/>
<text x="681" y="102" font-family="Arial" font-size="12">random detector</text>
</svg>
