<svg xmlns="http://www.w3.org/2000/svg" width="860" height="560" viewBox="0 0 860 560">
<rect width="100%" height="100%" fill="white"/>
<text x="430" y="28" text-anchor="middle" font-family="Arial" font-size="18" font-weight="700">Post-measurement wavefunction evolution</text>
<line x1="82" y1="488" x2="830" y2="488" stroke="#222" stroke-width="1.5"/>
<line x1="82" y1="48" x2="82" y2="488" stroke="#222" stroke-width="1.5"/>
<line x1="82.000" y1="488" x2="82.000" y2="494" stroke="#222"/>
<text x="82.000" y="512" text-anchor="middle" font-family="Arial" font-size="12">-7.2000</text>
<line x1="76" y1="488.000" x2="82" y2="488.000" stroke="#222"/>
<line x1="82" y1="488.000" x2="830" y2="488.000" stroke="#e8e8e8"/>
<text x="72" y="492.000" text-anchor="end" font-family="Arial" font-size="12">-0.0654</text>
<line x1="231.600" y1="488" x2="231.600" y2="494" stroke="#222"/>
<text x="231.600" y="512" text-anchor="middle" font-family="Arial" font-size="12">-6.1200</text>
<line x1="76" y1="400.000" x2="82" y2="400.000" stroke="#222"/>
<line x1="82" y1="400.000" x2="830" y2="400.000" stroke="#e8e8e8"/>
<text x="72" y="404.000" text-anchor="end" font-family="Arial" font-size="12">0.1242</text>
<line x1="381.200" y1="488" x2="381.200" y2="494" stroke="#222"/>
<text x="381.200" y="512" text-anchor="middle" font-family="Arial" font-size="12">-5.0400</text>
<line x1="76" y1="312.000" x2="82" y2="312.000" stroke="#222"/>
<line x1="82" y1="312.000" x2="830" y2="312.000" stroke="#e8e8e8"/>
<text x="72" y="316.000" text-anchor="end" font-family="Arial" font-size="12">0.3139</text>
<line x1="530.800" y1="488" x2="530.800" y2="494" stroke="#222"/>
<text x="530.800" y="512" text-anchor="middle" font-family="Arial" font-size="12">-3.9600</text>
<line x1="76" y1="224.000" x2="82" y2="224.000" stroke="#222"/>
<line x1="82" y1="224.000" x2="830" y2="224.000" stroke="#e8e8e8"/>
<text x="72" y="228.000" text-anchor="end" font-family="Arial" font-size="12">0.5035</text>
<line x1="680.400" y1="488" x2="680.400" y2="494" stroke="#222"/>
<text x="680.400" y="512" text-anchor="middle" font-family="Arial" font-size="12">-2.8800</text>
<line x1="76" y1="136.000" x2="82" y2="136.000" stroke="#222"/>
<line x1="82" y1="136.000" x2="830" y2="136.000" stroke="#e8e8e8"/>
<text x="72" y="140.000" text-anchor="end" font-family="Arial" font-size="12">0.6932</text>
<line x1="830.000" y1="488" x2="830.000" y2="494" stroke="#222"/>
<text x="830.000" y="512" text-anchor="middle" font-family="Arial" font-size="12">-1.8000</text>
<line x1="76" y1="48.000" x2="82" y2="48.000" stroke="#222"/>
<line x1="82" y1="48.000" x2="830" y2="48.000" stroke="#e8e8e8"/>
<text x="72" y="52.000" text-anchor="end" font-family="Arial" font-size="12">0.8828</text>
<text x="430" y="542" text-anchor="middle" font-family="Arial" font-size="15">x</text>
<text transform="translate(24 280) rotate(-90)" text-anchor="middle" font-family="Arial" font-size="15">|psi_n|^2</text>
<polyline fill="none" stroke="#1f4e79" stroke-width="2.2" points="109.704,457.651 112.012,457.649 114.321,457.650 116.630,457.651 118.938,457.648 121.247,457.645 123.556,457.646 125.864,457.646 128.173,457.640 130.481,457.639 132.790,457.640 135.099,457.634 137.407,457.629 139.716,457.630 142.025,457.626 144.333,457.615 146.642,457.614 148.951,457.611 151.259,457.596 153.568,457.591 155.877,457.587 158.185,457.567 160.494,457.556 162.802,457.552 165.111,457.525 167.420,457.509 169.728,457.499 172.037,457.462 174.346,457.442 176.654,457.423 178.963,457.372 181.272,457.347 183.580,457.309 185.889,457.244 188.198,457.216 190.506,457.147 192.815,457.072 195.123,457.025 197.432,456.914 199.741,456.841 202.049,456.748 204.358,456.608 206.667,456.523 208.975,456.350 211.284,456.211 213.593,456.058 215.901,455.833 218.210,455.683 220.519,455.404 222.827,455.187 225.136,454.906 227.444,454.580 229.753,454.306 232.062,453.874 234.370,453.557 236.679,453.052 238.988,452.630 241.296,452.090 243.605,451.526 245.914,450.959 248.222,450.232 250.531,449.606 252.840,448.715 255.148,447.995 257.457,446.958 259.765,446.111 262.074,444.932 264.383,443.918 266.691,442.580 269.000,441.370 271.309,439.860 273.617,438.445 275.926,436.746 278.235,435.117 280.543,433.192 282.852,431.332 285.160,429.138 287.469,427.043 289.778,424.548 292.086,422.225 294.395,419.404 296.704,416.844 299.012,413.664 301.321,410.835 303.630,407.288 305.938,404.138 308.247,400.267 310.556,396.726 312.864,392.616 315.173,388.575 317.481,384.305 319.790,379.672 322.099,375.258 324.407,370.054 326.716,365.387 329.025,359.817 331.333,354.658 333.642,349.015 335.951,343.140 338.259,337.542 340.568,331.031 342.877,325.198 345.185,318.519 347.494,311.975 349.802,305.536 352.111,298.255 354.420,291.777 356.728,284.458 359.037,277.246 361.346,270.404 363.654,262.571 365.963,255.568 368.272,248.148 370.580,240.286 372.889,233.357 375.198,225.541 377.506,217.956 379.815,211.050 382.123,203.170 384.432,195.987 386.741,189.201 389.049,181.527 391.358,174.794 393.667,168.316 395.975,161.048 398.284,154.815 400.593,148.894 402.901,142.223 405.210,136.559 407.519,131.456 409.827,125.608 412.136,120.560 414.444,116.452 416.753,111.706 419.062,107.314 421.370,104.201 423.679,100.865 425.988,97.294 428.296,94.975 430.605,93.211 432.914,90.904 435.222,89.195 437.531,88.727 439.840,88.211 442.148,87.418 444.457,87.636 446.765,88.816 449.074,89.748 451.383,90.629 453.691,92.572 456.000,95.330 458.309,97.851 460.617,100.315 462.926,103.698 465.235,107.923 467.543,112.058 469.852,115.972 472.160,120.470 474.469,125.866 476.778,131.498 479.086,136.828 481.395,142.221 483.704,148.297 486.012,154.987 488.321,161.674 490.630,168.066 492.938,174.523 495.247,181.497 497.556,188.941 499.864,196.398 502.173,203.563 504.481,210.588 506.790,217.835 509.099,225.453 511.407,233.232 513.716,240.844 516.025,248.155 518.333,255.301 520.642,262.520 522.951,269.919 525.259,277.397 527.568,284.746 529.877,291.816 532.185,298.603 534.494,305.218 536.802,311.791 539.111,318.376 541.420,324.929 543.728,331.349 546.037,337.538 548.346,343.449 550.654,349.098 552.963,354.536 555.272,359.824 557.580,365.000 559.889,370.068 562.198,375.006 564.506,379.780 566.815,384.355 569.123,388.710 571.432,392.840 573.741,396.753 576.049,400.465 578.358,403.996 580.667,407.363 582.975,410.579 585.284,413.652 587.593,416.586 589.901,419.382 592.210,422.038 594.519,424.556 596.827,426.936 599.136,429.178 601.444,431.287 603.753,433.266 606.062,435.119 608.370,436.853 610.679,438.473 612.988,439.985 615.296,441.395 617.605,442.708 619.914,443.930 622.222,445.065 624.531,446.119 626.840,447.096 629.148,448.001 631.457,448.838 633.765,449.611 636.074,450.324 638.383,450.980 640.691,451.582 643.000,452.135 645.309,452.642 647.617,453.105 649.926,453.528 652.235,453.914 654.543,454.266 656.852,454.587 659.160,454.880 661.469,455.149 663.778,455.396 666.086,455.623 668.395,455.833 670.704,456.027 673.012,456.205 675.321,456.368 677.630,456.515 679.938,456.645 682.247,456.758 684.556,456.855 686.864,456.938 689.173,457.009 691.481,457.073 693.790,457.133 696.099,457.191 698.407,457.247 700.716,457.302 703.025,457.351 705.333,457.392 707.642,457.423 709.951,457.447 712.259,457.466 714.568,457.484 716.877,457.505 719.185,457.527 721.494,457.548 723.802,457.565 726.111,457.575 728.420,457.582 730.728,457.587 733.037,457.595 735.346,457.606 737.654,457.616 739.963,457.623 742.272,457.625 744.580,457.626 746.889,457.629 749.198,457.634 751.506,457.639 753.815,457.642 756.123,457.642 758.432,457.642 760.741,457.644 763.049,457.648 765.358,457.650 767.667,457.649 769.975,457.649 772.284,457.650 774.593,457.652 776.901,457.653 779.210,457.652 781.519,457.652 783.827,457.653 786.136,457.654 788.444,457.654 790.753,457.653 793.062,457.654 795.370,457.655 797.679,457.655 799.988,457.654 802.296,457.654 "/>
<polyline fill="none" stroke="#c43c39" stroke-width="2.2" points="109.704,457.606 112.012,457.509 114.321,457.604 116.630,457.492 118.938,457.616 121.247,457.477 123.556,457.600 125.864,457.508 128.173,457.573 130.481,457.538 132.790,457.575 135.099,457.528 137.407,457.588 139.716,457.510 142.025,457.585 144.333,457.513 146.642,457.573 148.951,457.526 151.259,457.570 153.568,457.532 155.877,457.581 158.185,457.520 160.494,457.600 162.802,457.495 165.111,457.616 167.420,457.472 169.728,457.623 172.037,457.469 174.346,457.619 176.654,457.492 178.963,457.600 181.272,457.527 183.580,457.567 185.889,457.559 188.198,457.526 190.506,457.585 192.815,457.493 195.123,457.607 197.432,457.481 199.741,457.615 202.049,457.496 204.358,457.595 206.667,457.536 208.975,457.548 211.284,457.587 213.593,457.496 215.901,457.617 218.210,457.478 220.519,457.604 222.827,457.511 225.136,457.553 227.444,457.573 229.753,457.508 232.062,457.604 234.370,457.519 236.679,457.566 238.988,457.579 241.296,457.493 243.605,457.620 245.914,457.479 248.222,457.582 250.531,457.550 252.840,457.505 255.148,457.613 257.457,457.498 259.765,457.576 262.074,457.572 264.383,457.512 266.691,457.596 269.000,457.545 271.309,457.511 273.617,457.619 275.926,457.473 278.235,457.578 280.543,457.568 282.852,457.490 285.160,457.608 287.469,457.539 289.778,457.514 292.086,457.613 294.395,457.513 296.704,457.544 299.012,457.598 301.321,457.529 303.630,457.531 305.938,457.616 308.247,457.486 310.556,457.526 312.864,457.613 315.173,457.436 317.481,457.595 319.790,457.562 322.099,457.530 324.407,457.553 326.716,457.601 329.025,457.521 331.333,457.492 333.642,457.634 335.951,457.461 338.259,457.546 340.568,457.594 342.877,457.547 345.185,457.539 347.494,457.533 349.802,457.629 352.111,457.386 354.420,457.516 356.728,457.603 359.037,457.328 361.346,457.588 363.654,457.544 365.963,457.464 368.272,457.630 370.580,457.397 372.889,457.570 375.198,457.525 377.506,457.160 379.815,457.552 382.123,457.420 384.432,457.066 386.741,457.559 389.049,457.426 391.358,457.182 393.667,457.623 395.975,457.348 398.284,457.165 400.593,457.600 402.901,457.088 405.210,456.763 407.519,457.393 409.827,456.943 412.136,456.283 414.444,457.035 416.753,457.074 419.062,456.150 421.370,456.613 423.679,457.191 425.988,456.222 428.296,455.978 430.605,456.874 432.914,456.247 435.222,454.959 437.531,455.532 439.840,456.050 442.148,454.421 444.457,453.337 446.765,454.466 449.074,454.657 451.383,452.580 453.691,451.652 456.000,453.090 458.309,453.363 460.617,451.096 462.926,449.771 465.235,451.123 467.543,451.853 469.852,449.583 472.160,447.094 474.469,447.493 476.778,448.898 479.086,447.513 481.395,443.769 483.704,441.663 486.012,442.636 488.321,443.414 490.630,440.758 492.938,436.016 495.247,433.254 497.556,433.866 499.864,434.837 502.173,432.557 504.481,427.141 506.790,422.190 509.099,420.662 511.407,421.715 513.716,421.739 516.025,418.079 518.333,411.538 520.642,405.432 522.951,402.493 525.259,402.567 527.568,402.941 529.877,400.651 532.185,394.728 534.494,386.721 536.802,379.408 539.111,374.862 541.420,373.223 543.728,372.812 546.037,371.280 548.346,366.939 550.654,359.541 552.963,350.217 555.272,340.774 557.580,332.830 559.889,327.180 562.198,323.620 564.506,321.183 566.815,318.588 569.123,314.707 571.432,308.874 573.741,300.984 576.049,291.417 578.358,280.847 580.667,270.029 582.975,259.625 585.284,250.098 587.593,241.673 589.901,234.370 592.210,228.049 594.519,222.486 596.827,217.429 599.136,212.648 601.444,207.960 603.753,203.243 606.062,198.431 608.370,193.508 610.679,188.492 612.988,183.419 615.296,178.335 617.605,173.281 619.914,168.289 622.222,163.376 624.531,158.544 626.840,153.779 629.148,149.053 631.457,144.329 633.765,139.562 636.074,134.706 638.383,129.716 640.691,124.560 643.000,119.218 645.309,113.697 647.617,108.033 649.926,102.307 652.235,96.650 654.543,91.257 656.852,86.386 659.160,82.363 661.469,79.556 663.778,78.345 666.086,79.061 668.395,81.904 670.704,86.853 673.012,93.576 675.321,101.385 677.630,109.264 679.938,116.002 682.247,120.450 684.556,121.862 686.864,120.240 689.173,116.552 691.481,112.680 693.790,110.996 696.099,113.610 698.407,121.482 700.716,133.792 703.025,147.945 705.333,160.437 707.642,168.391 709.951,171.104 712.259,170.692 714.568,171.195 716.877,176.298 719.185,186.853 721.494,199.928 723.802,210.459 726.111,214.885 728.420,214.294 730.728,214.333 733.037,221.148 735.346,236.064 737.654,253.622 739.963,265.575 742.272,268.162 744.580,266.004 746.889,268.026 749.198,278.472 751.506,292.214 753.815,300.302 756.123,300.573 758.432,300.908 760.741,309.957 763.049,325.698 765.358,336.957 767.667,337.600 769.975,335.094 772.284,340.540 774.593,352.920 776.901,360.744 779.210,359.928 781.519,360.641 783.827,370.896 786.136,382.584 788.444,384.352 790.753,381.026 793.062,385.437 795.370,395.715 797.679,399.293 799.988,397.117 802.296,401.779 "/>
<polyline fill="none" stroke="#2a9d55" stroke-width="2.2" points="109.704,457.649 112.012,457.650 114.321,457.650 116.630,457.653 118.938,457.653 121.247,457.653 123.556,457.652 125.864,457.648 128.173,457.650 130.481,457.653 132.790,457.653 135.099,457.653 137.407,457.648 139.716,457.641 142.025,457.643 144.333,457.639 146.642,457.648 148.951,457.644 151.259,457.649 153.568,457.637 155.877,457.637 158.185,457.615 160.494,457.613 162.802,457.595 165.111,457.598 167.420,457.602 169.728,457.607 172.037,457.615 174.346,457.606 176.654,457.605 178.963,457.588 181.272,457.602 183.580,457.600 185.889,457.629 188.198,457.630 190.506,457.639 192.815,457.616 195.123,457.610 197.432,457.580 199.741,457.589 202.049,457.584 204.358,457.595 206.667,457.598 208.975,457.588 211.284,457.589 213.593,457.567 215.901,457.586 218.210,457.584 220.519,457.610 222.827,457.631 225.136,457.640 227.444,457.654 229.753,457.654 232.062,457.655 234.370,457.655 236.679,457.654 238.988,457.652 241.296,457.649 243.605,457.635 245.914,457.634 248.222,457.624 250.531,457.620 252.840,457.635 255.148,457.634 257.457,457.646 259.765,457.650 262.074,457.649 264.383,457.648 266.691,457.638 269.000,457.643 271.309,457.640 273.617,457.641 275.926,457.646 278.235,457.635 280.543,457.634 282.852,457.614 285.160,457.591 287.469,457.589 289.778,457.566 292.086,457.560 294.395,457.579 296.704,457.572 299.012,457.584 301.321,457.602 303.630,457.592 305.938,457.598 308.247,457.601 310.556,457.583 312.864,457.590 315.173,457.601 317.481,457.595 319.790,457.610 322.099,457.630 324.407,457.634 326.716,457.643 329.025,457.652 331.333,457.650 333.642,457.651 335.951,457.651 338.259,457.644 340.568,457.644 342.877,457.648 345.185,457.645 347.494,457.645 349.802,457.651 352.111,457.650 354.420,457.647 356.728,457.649 359.037,457.643 361.346,457.631 363.654,457.629 365.963,457.627 368.272,457.613 370.580,457.604 372.889,457.612 375.198,457.616 377.506,457.610 379.815,457.614 382.123,457.628 384.432,457.634 386.741,457.631 389.049,457.635 391.358,457.643 393.667,457.640 395.975,457.635 398.284,457.637 400.593,457.643 402.901,457.641 405.210,457.638 407.519,457.640 409.827,457.646 412.136,457.648 414.444,457.646 416.753,457.642 419.062,457.639 421.370,457.641 423.679,457.642 425.988,457.638 428.296,457.632 430.605,457.631 432.914,457.638 435.222,457.641 437.531,457.638 439.840,457.635 442.148,457.637 444.457,457.641 446.765,457.637 449.074,457.627 451.383,457.622 453.691,457.624 456.000,457.626 458.309,457.620 460.617,457.613 462.926,457.613 465.235,457.622 467.543,457.630 469.852,457.632 472.160,457.631 474.469,457.633 476.778,457.640 479.086,457.645 481.395,457.641 483.704,457.633 486.012,457.626 488.321,457.623 490.630,457.620 492.938,457.611 495.247,457.596 497.556,457.579 499.864,457.570 502.173,457.570 504.481,457.573 506.790,457.572 509.099,457.564 511.407,457.553 513.716,457.548 516.025,457.551 518.333,457.561 520.642,457.570 522.951,457.572 525.259,457.568 527.568,457.560 529.877,457.554 532.185,457.554 534.494,457.558 536.802,457.563 539.111,457.564 541.420,457.559 543.728,457.549 546.037,457.536 548.346,457.526 550.654,457.520 552.963,457.520 555.272,457.524 557.580,457.527 559.889,457.529 562.198,457.527 564.506,457.522 566.815,457.516 569.123,457.510 571.432,457.507 573.741,457.507 576.049,457.513 578.358,457.521 580.667,457.532 582.975,457.544 585.284,457.555 587.593,457.565 589.901,457.574 592.210,457.581 594.519,457.587 596.827,457.593 599.136,457.598 601.444,457.602 603.753,457.607 606.062,457.611 608.370,457.614 610.679,457.616 612.988,457.617 615.296,457.616 617.605,457.613 619.914,457.608 622.222,457.602 624.531,457.594 626.840,457.587 629.148,457.579 631.457,457.573 633.765,457.568 636.074,457.567 638.383,457.568 640.691,457.573 643.000,457.581 645.309,457.592 647.617,457.605 649.926,457.618 652.235,457.630 654.543,457.640 656.852,457.644 659.160,457.641 661.469,457.630 663.778,457.609 666.086,457.578 668.395,457.538 670.704,457.490 673.012,457.437 675.321,457.381 677.630,457.328 679.938,457.279 682.247,457.239 684.556,457.211 686.864,457.195 689.173,457.192 691.481,457.201 693.790,457.219 696.099,457.242 698.407,457.263 700.716,457.273 703.025,457.259 705.333,457.208 707.642,457.105 709.951,456.937 712.259,456.698 714.568,456.397 716.877,456.054 719.185,455.707 721.494,455.400 723.802,455.174 726.111,455.054 728.420,455.040 730.728,455.108 733.037,455.214 735.346,455.308 737.654,455.342 739.963,455.267 742.272,455.029 744.580,454.570 746.889,453.840 749.198,452.840 751.506,451.653 753.815,450.445 756.123,449.419 758.432,448.724 760.741,448.393 763.049,448.342 765.358,448.438 767.667,448.559 769.975,448.601 772.284,448.409 774.593,447.759 776.901,446.453 779.210,444.485 781.519,442.112 783.827,439.706 786.136,437.506 788.444,435.544 790.753,433.811 793.062,432.453 795.370,431.662 797.679,431.344 799.988,431.034 802.296,430.246 "/>
<line x1="645" y1="62" x2="673" y2="62" stroke="#1f4e79" stroke-width="2.5"/>
<text x="681" y="66" font-family="Arial" font-size="12">t=0.02</text>
<line x1="645" y1="80" x2="673" y2="80" stroke="#c43c39" stroke-width="2.5"/>
<text x="681" y="84" font-family="Arial" font-size="12">t=0.10</text>
<line x1="645" y1="98" x2="673" y2="98" stroke="#2a9d55" stroke-width="2.5"/>
<text x="681" y="102" font-family="Arial" font-size="12">t=0.21</text>
</svg>
